<?xml version="1.0" encoding="utf-8"?>
<!-- Generator: Adobe Illustrator 16.0.0, SVG Export Plug-In . SVG Version: 6.00 Build 0)  -->
<!DOCTYPE svg PUBLIC "-//W3C//DTD SVG 1.1//EN" "http://www.w3.org/Graphics/SVG/1.1/DTD/svg11.dtd">
<svg version="1.1" id="Capa_1" xmlns="http://www.w3.org/2000/svg" xmlns:xlink="http://www.w3.org/1999/xlink" x="0px" y="0px"
	 width="105px" height="105px" viewBox="255.75 343.5 105 105" enable-background="new 255.75 343.5 105 105" xml:space="preserve">
<path fill="#CCCCCC" d="M347.717,442.957h-87.528v-20.199h70.696l3.367-5.05h23.564L347.717,442.957z"/>
<circle fill="#29485A" cx="343.509" cy="426.966" r="2.524"/>
<path fill="#808080" d="M280.388,422.758h-15.149V382.36h15.149V422.758z"/>
<path fill="#3FA9F5" d="M314.053,405.925v16.833h-33.665v-16.833H314.053L314.053,405.925z"/>
<path fill="#FF1D25" d="M314.053,422.758h16.832l3.367-5.05h13.465v-11.783h-33.664V422.758z"/>
<path fill="#F8CF26" d="M314.053,389.093v16.832h-33.665v-16.832H314.053L314.053,389.093z"/>
<path fill="#0378A3" d="M347.717,405.925h-33.664v-16.832h33.664V405.925z"/>
<path fill="#3FA9F5" d="M330.885,372.261v16.833H297.22v-16.833H330.885L330.885,372.261z"/>
<path fill="#CCCCCC" d="M285.438,382.36h-25.249v-10.1h25.249V382.36z"/>
<path d="M339.301,426.966c0,2.324,1.885,4.208,4.209,4.208s4.207-1.884,4.207-4.208c0-2.325-1.883-4.208-4.207-4.208
	S339.301,424.641,339.301,426.966z M342.668,426.966c0-0.465,0.377-0.842,0.842-0.842s0.842,0.377,0.842,0.842
	s-0.377,0.842-0.842,0.842S342.668,427.431,342.668,426.966z"/>
<path d="M330.885,429.491v1.683c0,0.93-0.754,1.684-1.684,1.684h-1.684c-0.928,0-1.682-0.754-1.682-1.684v-1.683
	c0-0.93,0.754-1.684,1.682-1.684h1.684C330.131,427.808,330.885,428.562,330.885,429.491z"/>
<path d="M322.469,429.491v1.683c0,0.93-0.754,1.684-1.684,1.684h-1.684c-0.93,0-1.684-0.754-1.684-1.684v-1.683
	c0-0.93,0.754-1.684,1.684-1.684h1.684C321.715,427.808,322.469,428.562,322.469,429.491z"/>
<path d="M314.053,429.491v1.683c0,0.93-0.754,1.684-1.684,1.684h-1.684c-0.93,0-1.684-0.754-1.684-1.684v-1.683
	c0-0.93,0.754-1.684,1.684-1.684h1.684C313.299,427.808,314.053,428.562,314.053,429.491z"/>
<path d="M342.668,400.876h-3.367v-6.733h3.367V400.876z"/>
<path d="M335.936,400.876h-3.367v-6.733h3.367V400.876z"/>
<path d="M329.201,400.876h-3.365v-6.733h3.365V400.876z"/>
<path d="M322.469,400.876h-3.367v-6.733h3.367V400.876z"/>
<path d="M325.836,384.043h-3.367v-6.733h3.367V384.043z"/>
<path d="M319.102,384.043h-3.365v-6.733h3.365V384.043z"/>
<path d="M312.369,384.043h-3.367v-6.733h3.367V384.043z"/>
<path d="M305.636,384.043h-3.366v-6.733h3.366V384.043z"/>
<path d="M329.201,417.708h-3.365v-6.732h3.365V417.708z"/>
<path d="M322.469,417.708h-3.367v-6.732h3.367V417.708z"/>
<path d="M309.002,410.976v6.732h-3.366v-6.732H309.002L309.002,410.976z"/>
<path d="M302.27,417.708h-3.367v-6.732h3.367V417.708z"/>
<path d="M295.538,417.708h-3.367v-6.732h3.367V417.708z"/>
<path d="M288.804,417.708h-3.366v-6.732h3.366V417.708z"/>
<path d="M309.002,394.143v6.733h-3.366v-6.733H309.002L309.002,394.143z"/>
<path d="M302.27,400.876h-3.367v-6.733h3.367V400.876z"/>
<path d="M295.538,400.876h-3.367v-6.733h3.367V400.876z"/>
<path d="M288.804,400.876h-3.366v-6.733h3.366V400.876z"/>
<path d="M258.505,372.261v10.1c0,0.93,0.754,1.684,1.684,1.684h3.366v37.03h-3.366c-0.93,0-1.684,0.754-1.684,1.684v20.199
	c0,0.93,0.754,1.684,1.684,1.684h87.528c0.689,0,1.309-0.42,1.564-1.06l10.1-25.248c0.078-0.199,0.119-0.411,0.119-0.625
	c0-0.93-0.754-1.684-1.684-1.684H349.4v-26.931c0-0.93-0.754-1.684-1.684-1.684h-15.148v-15.149c0-0.93-0.754-1.683-1.684-1.683
	H297.22c-0.93,0-1.683,0.753-1.683,1.683v15.149h-13.467v-3.366h3.367c0.929,0,1.683-0.754,1.683-1.683v-10.1
	c0-0.93-0.754-1.683-1.683-1.683h-3.367v-8.416h-3.366v8.416h-5.05v-18.516h-3.366v18.516h-5.05v-21.882h-3.367v21.882h-1.683
	C259.259,370.578,258.505,371.331,258.505,372.261z M282.071,421.074v-13.466h30.298v13.466H282.071z M282.071,390.776h30.298
	v13.466h-30.298V390.776z M329.201,373.944v13.466h-30.298v-13.466H329.201L329.201,373.944z M346.033,404.242h-30.297v-13.466
	h30.297V404.242z M346.033,416.024h-3.365v-5.049h-3.367v5.049h-3.365v-5.049h-3.367v6.228l-2.584,3.871h-14.248v-13.466h30.297
	V416.024z M261.872,424.441h69.013c0.564,0.001,1.092-0.279,1.406-0.75l2.861-4.301h20.178l-8.752,21.883h-84.707V424.441z
	 M266.921,384.043h11.783v37.031h-11.783V384.043z M261.872,373.944h21.883v1.683h-10.1v3.367h10.1v1.684h-21.883V373.944z"/>
<path d="M275.338,390.776h-5.05v-3.367h5.05V390.776z"/>
<path d="M275.338,397.509h-5.05v-3.366h5.05V397.509z"/>
<path d="M275.338,404.242h-5.05v-3.366h5.05V404.242z"/>
</svg>
