<?xml version="1.0" encoding="utf-8"?>
<!-- Generator: Adobe Illustrator 16.0.0, SVG Export Plug-In . SVG Version: 6.00 Build 0)  -->
<!DOCTYPE svg PUBLIC "-//W3C//DTD SVG 1.1//EN" "http://www.w3.org/Graphics/SVG/1.1/DTD/svg11.dtd">
<svg version="1.1" xmlns="http://www.w3.org/2000/svg" xmlns:xlink="http://www.w3.org/1999/xlink" x="0px" y="0px" width="650px"
	 height="260px" viewBox="0 0 650 260" enable-background="new 0 0 650 260" xml:space="preserve">
<g id="Layer_3">
	<path fill="#00AEEF" d="M252.627,158c0,0-176.958,120.499-217.292,47.833c0,0-26.833-53.333,56-124.667
		c0,0,24.666-24,87.333-55.333c0,0-112.666,69.333-132.666,141.333c0,0-22.001,63.834,70.999,39.834c0,0,38.25-10.5,70.75-33.25
		l-13.5-15.75h78.25"/>
	<path fill="#444444" d="M254.668,161.167l-39,78l-9-23.334c0,0-71.333,48.667-144.333,31.334c0,0-61.667-8.999-43.667-79.999
		c0,0,15.333-47,69.667-93.333c0,0,55.667-44,121-59.667c0,0-80.333,25-134.667,83c0,0-61,58.333-43.333,112.667
		c0,0,18.667,46.666,116,9C147.335,218.834,227.335,182.5,254.668,161.167z"/>
</g>
<g id="Layer_4">
	<path fill="#00AEEF" d="M140.502,117.5h17.5c0,0,2,18,20,16.25c0,0,12.25,1.5,19-6c2.16-2.4,2.516-6.733,1.419-9.593
		c-3.191-8.329-12.186-7.854-19.408-9.061c-3.959-0.662-7.896-1.526-11.713-2.783c-7.17-2.362-14.817-6.537-19.574-12.578
		c-4.138-5.256-6.574-12.282-6.192-18.982c0.515-9.043,3.825-15.358,11.24-20.392c6.829-4.634,15.344-6.669,23.501-6.677
		c13.798-0.014,25.646,5.289,32.304,17.621c1.59,2.946,4.875,14.196,4.423,14.196c0,0-15.25,0-15.25,0s-5.75-14.25-19.75-15.25
		c0,0-17.25-0.75-19.5,10.75c0,0-4,9.5,19,14c0,0,33.75,4.25,38.75,22.25c0,0,8.25,32.25-29,37.5
		C187.252,148.75,145.752,159,140.502,117.5z"/>
	<path fill="#00AEEF" d="M227.335,146.521V51.5c0,0,15.667-2.667,19,12v19.667c0,0,12-17,32.333-10.667c0,0,14,3.334,16.667,18.667
		V146.5h-18v-47c0,0,1.333-17.666-20.667-12.333c0,0-7.667,2-11,14v45.375L227.335,146.521z"/>
	<path fill="#00AEEF" d="M306.002,74.167v71.667h17.666v-60C323.668,85.833,323.668,69.167,306.002,74.167z"/>
	<path fill="#00AEEF" d="M305.668,52.167v13h18C323.668,65.167,325.335,47.167,305.668,52.167z"/>
	<path fill="#00AEEF" d="M335.502,174.5V103c0,0,0.5-27.5,27.5-30.5c0,0,30.5-4.5,40,24c0,0,10,41-21,51.5c0,0-21.5,8-30-11v32
		C352.002,169,352.502,178,335.502,174.5z M351.933,110.841c0.052,0.501,0.113,1,0.187,1.495
		c1.224,8.271,4.911,17.745,14.207,19.355c4.443,0.77,10.27,0.241,14.063-2.407c8.664-6.049,8.74-21.886,5.421-30.781
		c-1.011-2.708-2.694-5.362-4.809-7.355c-1.841-1.735-4.143-3.021-6.53-3.846c-9.959-3.442-19.723,4.641-22.001,14.088
		C351.741,104.412,351.619,107.75,351.933,110.841z"/>
	<path fill="#444444" d="M460.502,94.5h13.75c0,0-6-33.5-45-23c0,0-17.5,4.5-16.25,23.25c0.135,2.022,0.379,3.732,1.286,5.635
		c2.503,5.251,7.342,8.984,12.485,11.441c2.427,1.159,4.96,2.083,7.519,2.903c1.447,0.463,2.906,0.891,4.369,1.303
		c2.029,0.571,3.883,1.152,5.98,1.37c1.415,0.147,2.832,0.393,4.221,0.702c3.225,0.717,6.907,1.851,9.175,4.406
		c1.396,1.575,1.483,3.021,1.715,4.99c0,0.002,0.998,8.5-13.25,7.75c0,0-13,1-16.5-11.75h-17c0,0-0.75,18.5,18,24.5
		c2.767,0.886,5.975,1.099,8.843,1.263c13.031,0.745,28.065-2.35,34.606-14.898c2.583-4.956,3.617-10.998,1.908-16.375
		c-1.465-4.607-5.19-9.117-9.569-11.281c-4.024-1.989-8.461-3.322-12.74-4.623c-4.896-1.487-9.84-2.823-14.798-4.086
		c-1.447-0.369-2.753-0.523-4.098-1.305c-1.797-1.043-3.402-2.767-4.199-4.693c-0.825-1.997-0.268-3.309,0.916-4.998
		c1.49-2.125,3.892-3.471,6.436-3.861c5.979-0.918,12.567,1.142,17.012,5.15c0.931,0.84,1.799,1.755,2.611,2.709
		C458.284,91.419,460.152,94.5,460.502,94.5z"/>
	<path fill="#444444" d="M553.669,110.5c0,22.092-15.596,40-34.833,40s-34.833-17.908-34.833-40c0-22.091,15.596-40,34.833-40
		S553.669,88.409,553.669,110.5z M504.152,99.617c-2.361,9.245-3.41,22.944,4.22,30.202c6.427,6.114,17.069,4.372,22.364-2.324
		c6.798-8.596,4.47-22.417,1.412-31.984c-1.939-6.069-7.892-10.715-14.374-10.057C510.396,86.203,505.855,92.949,504.152,99.617z"/>
	<path fill="#444444" d="M561.814,65.688c0,0-1.063-13.125,14.125-14.25h15.063V65.5h-6.063c0,0-5.938-0.75-5.938,5.125v6.75h12.188
		v5.75c0,0,1.25,7.938-12.25,9.188V146.5h-17.125V65.688z"/>
	<path fill="#444444" d="M602.169,51.333h9.666c0,0,8.334,0.5,8.334,12v8.5h13c0,0,2.5,13.667-13.667,14.167v40.667
		c0,0-0.833,5.5,5,5.5h5.5v14.5h-15.167c0,0-12.5,0.833-12.5-16.833L602.169,51.333z"/>
	<g>
		<path fill="#444444" d="M255.669,196.377h-6.199v3.999h6.923v3.124h-10.748v-16.846h10.397v3.124h-6.573v3.499h6.199V196.377z"/>
		<path fill="#444444" d="M258.622,195.177c0-1.524-0.05-2.824-0.1-3.898h3.199l0.175,1.649h0.075
			c0.525-0.775,1.6-1.925,3.699-1.925c1.575,0,2.824,0.8,3.349,2.074h0.05c0.45-0.624,1-1.124,1.575-1.475
			c0.675-0.399,1.424-0.6,2.324-0.6c2.35,0,4.124,1.649,4.124,5.299v7.198h-3.699v-6.648c0-1.774-0.575-2.799-1.799-2.799
			c-0.875,0-1.5,0.6-1.75,1.324c-0.1,0.275-0.15,0.675-0.15,0.975v7.148h-3.699v-6.849c0-1.55-0.55-2.599-1.75-2.599
			c-0.975,0-1.55,0.749-1.775,1.374c-0.125,0.3-0.15,0.65-0.15,0.95v7.123h-3.699V195.177z"/>
		<path fill="#444444" d="M279.871,195.377c0-1.6-0.05-2.975-0.1-4.099h3.299l0.175,1.699h0.05c0.9-1.3,2.299-1.975,4.074-1.975
			c2.674,0,5.074,2.324,5.074,6.224c0,4.449-2.824,6.549-5.549,6.549c-1.475,0-2.625-0.601-3.174-1.4h-0.05v6.074h-3.799V195.377z
			 M283.67,198.251c0,0.3,0.025,0.575,0.075,0.8c0.25,1.025,1.125,1.8,2.225,1.8c1.65,0,2.625-1.375,2.625-3.449
			c0-1.949-0.875-3.424-2.574-3.424c-1.075,0-2.025,0.8-2.275,1.925c-0.05,0.199-0.075,0.449-0.075,0.675V198.251z"/>
		<path fill="#444444" d="M306.718,197.252c0,4.474-3.174,6.523-6.448,6.523c-3.574,0-6.324-2.35-6.324-6.299s2.6-6.474,6.523-6.474
			C304.218,191.003,306.718,193.577,306.718,197.252z M297.87,197.377c0,2.099,0.875,3.674,2.499,3.674
			c1.475,0,2.425-1.475,2.425-3.674c0-1.825-0.7-3.675-2.425-3.675C298.545,193.702,297.87,195.577,297.87,197.377z"/>
		<path fill="#444444" d="M311.22,191.278l0.975,4.998c0.25,1.275,0.5,2.625,0.7,4.024h0.05c0.25-1.399,0.6-2.799,0.9-3.999
			l1.3-5.023h2.999l1.225,4.873c0.325,1.375,0.65,2.75,0.9,4.149h0.05c0.175-1.399,0.425-2.774,0.699-4.174l1.05-4.849h3.725
			l-3.749,12.222h-3.574l-1.15-4.299c-0.3-1.2-0.525-2.3-0.775-3.799h-0.05c-0.225,1.524-0.475,2.649-0.8,3.799l-1.225,4.299h-3.574
			l-3.549-12.222H311.22z"/>
		<path fill="#444444" d="M329.87,198.602c0.125,1.574,1.674,2.324,3.449,2.324c1.299,0,2.349-0.175,3.374-0.5l0.5,2.574
			c-1.25,0.5-2.774,0.75-4.424,0.75c-4.149,0-6.523-2.399-6.523-6.224c0-3.1,1.924-6.523,6.173-6.523
			c3.949,0,5.449,3.074,5.449,6.099c0,0.649-0.075,1.225-0.125,1.5H329.87z M334.344,196.002c0-0.925-0.4-2.475-2.149-2.475
			c-1.6,0-2.25,1.45-2.35,2.475H334.344z"/>
		<path fill="#444444" d="M339.896,195.302c0-1.8-0.05-2.974-0.1-4.023h3.274l0.125,2.249h0.1c0.625-1.774,2.124-2.524,3.299-2.524
			c0.351,0,0.525,0,0.8,0.05v3.574c-0.274-0.05-0.6-0.1-1.024-0.1c-1.399,0-2.35,0.75-2.6,1.925c-0.05,0.249-0.075,0.55-0.075,0.85
			v6.198h-3.799V195.302z"/>
		<path fill="#444444" d="M351.87,198.602c0.125,1.574,1.674,2.324,3.449,2.324c1.299,0,2.349-0.175,3.374-0.5l0.5,2.574
			c-1.25,0.5-2.774,0.75-4.424,0.75c-4.149,0-6.523-2.399-6.523-6.224c0-3.1,1.924-6.523,6.173-6.523
			c3.949,0,5.449,3.074,5.449,6.099c0,0.649-0.075,1.225-0.125,1.5H351.87z M356.344,196.002c0-0.925-0.4-2.475-2.149-2.475
			c-1.6,0-2.25,1.45-2.35,2.475H356.344z"/>
		<path fill="#444444" d="M373.743,185.754v14.097c0,1.375,0.05,2.824,0.1,3.649h-3.374l-0.175-1.8h-0.05
			c-0.775,1.375-2.25,2.075-3.824,2.075c-2.899,0-5.224-2.475-5.224-6.273c-0.025-4.124,2.549-6.499,5.474-6.499
			c1.499,0,2.674,0.525,3.224,1.375h0.05v-6.624H373.743z M369.943,196.452c0-0.2-0.024-0.476-0.05-0.675
			c-0.225-1.025-1.05-1.875-2.225-1.875c-1.725,0-2.624,1.55-2.624,3.475c0,2.074,1.024,3.374,2.6,3.374
			c1.1,0,1.975-0.75,2.199-1.825c0.075-0.274,0.1-0.55,0.1-0.874V196.452z"/>
		<path fill="#444444" d="M381.245,203.5c0.05-0.8,0.1-2.274,0.1-3.649v-14.097h3.799v6.974h0.051
			c0.725-1.05,1.999-1.725,3.699-1.725c2.924,0,5.073,2.425,5.048,6.174c0,4.398-2.799,6.599-5.599,6.599
			c-1.424,0-2.799-0.525-3.674-1.975h-0.05l-0.15,1.699H381.245z M385.144,198.301c0,0.25,0.025,0.476,0.075,0.676
			c0.25,1.024,1.125,1.799,2.225,1.799c1.625,0,2.624-1.249,2.624-3.449c0-1.899-0.85-3.398-2.624-3.398
			c-1.024,0-1.975,0.774-2.225,1.874c-0.05,0.225-0.075,0.45-0.075,0.7V198.301z"/>
		<path fill="#444444" d="M398.67,191.278l1.824,5.998c0.2,0.725,0.45,1.625,0.601,2.274h0.074c0.175-0.649,0.375-1.574,0.55-2.274
			l1.5-5.998h4.074l-2.85,8.048c-1.749,4.849-2.924,6.798-4.299,8.022c-1.325,1.15-2.725,1.55-3.674,1.675l-0.8-3.224
			c0.475-0.075,1.074-0.3,1.649-0.65c0.575-0.3,1.199-0.899,1.574-1.524c0.125-0.175,0.2-0.375,0.2-0.55
			c0-0.125-0.025-0.325-0.175-0.625l-4.474-11.172H398.67z"/>
		<path fill="#444444" d="M413.421,200.176c0.699,0.425,2.149,0.925,3.273,0.925c1.15,0,1.625-0.399,1.625-1.024
			s-0.375-0.925-1.8-1.4c-2.524-0.85-3.499-2.224-3.474-3.674c0-2.274,1.949-3.999,4.974-3.999c1.425,0,2.699,0.325,3.449,0.7
			l-0.675,2.624c-0.55-0.3-1.6-0.7-2.649-0.7c-0.925,0-1.45,0.375-1.45,1c0,0.575,0.476,0.875,1.975,1.399
			c2.325,0.8,3.3,1.975,3.324,3.774c0,2.274-1.799,3.949-5.299,3.949c-1.6,0-3.023-0.35-3.948-0.85L413.421,200.176z"/>
		<path fill="#444444" d="M436.117,197.252c0,4.474-3.174,6.523-6.448,6.523c-3.574,0-6.323-2.35-6.323-6.299
			s2.599-6.474,6.523-6.474C433.618,191.003,436.117,193.577,436.117,197.252z M427.27,197.377c0,2.099,0.875,3.674,2.499,3.674
			c1.475,0,2.425-1.475,2.425-3.674c0-1.825-0.7-3.675-2.425-3.675C427.944,193.702,427.27,195.577,427.27,197.377z"/>
		<path fill="#444444" d="M438.645,203.5v-9.423h-1.6v-2.799h1.6v-0.476c0-1.475,0.45-3.099,1.55-4.099
			c0.95-0.899,2.274-1.225,3.374-1.225c0.85,0,1.5,0.1,2.024,0.25l-0.149,2.924c-0.325-0.1-0.725-0.175-1.225-0.175
			c-1.25,0-1.774,0.975-1.774,2.175v0.625h2.449v2.799h-2.425v9.423H438.645z"/>
		<path fill="#444444" d="M451.118,187.779v3.499h2.725v2.799h-2.725v4.424c0,1.475,0.35,2.149,1.5,2.149
			c0.475,0,0.85-0.05,1.125-0.1l0.024,2.874c-0.5,0.2-1.399,0.325-2.475,0.325c-1.225,0-2.249-0.425-2.849-1.05
			c-0.7-0.725-1.05-1.899-1.05-3.624v-4.999h-1.625v-2.799h1.625v-2.649L451.118,187.779z"/>
		<path fill="#444444" d="M458.544,191.278l0.975,4.998c0.25,1.275,0.5,2.625,0.699,4.024h0.051c0.249-1.399,0.6-2.799,0.899-3.999
			l1.3-5.023h2.999l1.225,4.873c0.325,1.375,0.65,2.75,0.899,4.149h0.051c0.175-1.399,0.425-2.774,0.699-4.174l1.05-4.849h3.725
			l-3.749,12.222h-3.574l-1.15-4.299c-0.3-1.2-0.524-2.3-0.774-3.799h-0.05c-0.225,1.524-0.475,2.649-0.8,3.799l-1.225,4.299h-3.574
			l-3.549-12.222H458.544z"/>
		<path fill="#444444" d="M481.417,203.5l-0.225-1.225h-0.075c-0.8,0.975-2.05,1.5-3.499,1.5c-2.475,0-3.949-1.8-3.949-3.75
			c0-3.174,2.85-4.698,7.174-4.674v-0.175c0-0.649-0.351-1.574-2.225-1.574c-1.25,0-2.574,0.425-3.374,0.925l-0.7-2.449
			c0.85-0.476,2.524-1.075,4.749-1.075c4.074,0,5.373,2.399,5.373,5.273v4.249c0,1.175,0.051,2.3,0.176,2.975H481.417z
			 M480.968,197.727c-2-0.025-3.55,0.45-3.55,1.925c0,0.975,0.65,1.449,1.5,1.449c0.949,0,1.725-0.625,1.975-1.399
			c0.05-0.2,0.075-0.425,0.075-0.65V197.727z"/>
		<path fill="#444444" d="M487.419,195.302c0-1.8-0.05-2.974-0.1-4.023h3.274l0.125,2.249h0.1c0.625-1.774,2.124-2.524,3.299-2.524
			c0.351,0,0.525,0,0.8,0.05v3.574c-0.274-0.05-0.6-0.1-1.024-0.1c-1.399,0-2.35,0.75-2.6,1.925c-0.05,0.249-0.075,0.55-0.075,0.85
			v6.198h-3.799V195.302z"/>
		<path fill="#444444" d="M499.394,198.602c0.125,1.574,1.674,2.324,3.449,2.324c1.299,0,2.349-0.175,3.374-0.5l0.5,2.574
			c-1.25,0.5-2.774,0.75-4.424,0.75c-4.149,0-6.523-2.399-6.523-6.224c0-3.1,1.924-6.523,6.173-6.523
			c3.949,0,5.449,3.074,5.449,6.099c0,0.649-0.075,1.225-0.125,1.5H499.394z M503.867,196.002c0-0.925-0.4-2.475-2.149-2.475
			c-1.6,0-2.25,1.45-2.35,2.475H503.867z"/>
		<path fill="#444444" d="M518.143,187.879c0,1.05-0.8,1.899-2.049,1.899c-1.2,0-2-0.85-1.975-1.899
			c-0.025-1.1,0.774-1.925,1.999-1.925S518.118,186.779,518.143,187.879z M514.219,203.5v-12.222h3.799V203.5H514.219z"/>
		<path fill="#444444" d="M520.818,195.177c0-1.524-0.05-2.824-0.1-3.898h3.299l0.175,1.674h0.075c0.5-0.774,1.75-1.949,3.774-1.949
			c2.499,0,4.374,1.649,4.374,5.249v7.248h-3.8v-6.773c0-1.574-0.55-2.649-1.924-2.649c-1.05,0-1.675,0.725-1.925,1.425
			c-0.1,0.225-0.15,0.6-0.15,0.95v7.048h-3.799V195.177z"/>
		<path fill="#444444" d="M535.218,195.177c0-1.524-0.05-2.824-0.1-3.898h3.299l0.175,1.674h0.075c0.5-0.774,1.75-1.949,3.774-1.949
			c2.499,0,4.374,1.649,4.374,5.249v7.248h-3.8v-6.773c0-1.574-0.55-2.649-1.924-2.649c-1.05,0-1.675,0.725-1.925,1.425
			c-0.1,0.225-0.15,0.6-0.15,0.95v7.048h-3.799V195.177z"/>
		<path fill="#444444" d="M561.69,197.252c0,4.474-3.174,6.523-6.448,6.523c-3.574,0-6.323-2.35-6.323-6.299
			s2.599-6.474,6.523-6.474C559.191,191.003,561.69,193.577,561.69,197.252z M552.843,197.377c0,2.099,0.875,3.674,2.499,3.674
			c1.475,0,2.425-1.475,2.425-3.674c0-1.825-0.7-3.675-2.425-3.675C553.518,193.702,552.843,195.577,552.843,197.377z"/>
		<path fill="#444444" d="M566.393,191.278l1.649,5.673c0.301,1.025,0.525,2,0.7,2.975h0.075c0.2-1,0.399-1.925,0.675-2.975
			l1.574-5.673h3.999l-4.549,12.222h-3.799l-4.449-12.222H566.393z"/>
		<path fill="#444444" d="M583.342,203.5l-0.225-1.225h-0.075c-0.8,0.975-2.05,1.5-3.499,1.5c-2.475,0-3.949-1.8-3.949-3.75
			c0-3.174,2.85-4.698,7.174-4.674v-0.175c0-0.649-0.351-1.574-2.225-1.574c-1.25,0-2.574,0.425-3.374,0.925l-0.7-2.449
			c0.85-0.476,2.524-1.075,4.749-1.075c4.074,0,5.373,2.399,5.373,5.273v4.249c0,1.175,0.051,2.3,0.176,2.975H583.342z
			 M582.893,197.727c-2-0.025-3.55,0.45-3.55,1.925c0,0.975,0.65,1.449,1.5,1.449c0.949,0,1.725-0.625,1.975-1.399
			c0.05-0.2,0.075-0.425,0.075-0.65V197.727z"/>
		<path fill="#444444" d="M593.393,187.779v3.499h2.725v2.799h-2.725v4.424c0,1.475,0.35,2.149,1.5,2.149
			c0.475,0,0.85-0.05,1.124-0.1l0.025,2.874c-0.5,0.2-1.399,0.325-2.475,0.325c-1.225,0-2.249-0.425-2.849-1.05
			c-0.7-0.725-1.05-1.899-1.05-3.624v-4.999h-1.625v-2.799h1.625v-2.649L593.393,187.779z"/>
		<path fill="#444444" d="M601.992,187.879c0,1.05-0.8,1.899-2.049,1.899c-1.2,0-2-0.85-1.975-1.899
			c-0.025-1.1,0.774-1.925,1.999-1.925S601.968,186.779,601.992,187.879z M598.068,203.5v-12.222h3.799V203.5H598.068z"/>
		<path fill="#444444" d="M616.74,197.252c0,4.474-3.174,6.523-6.448,6.523c-3.574,0-6.323-2.35-6.323-6.299
			s2.599-6.474,6.523-6.474C614.241,191.003,616.74,193.577,616.74,197.252z M607.893,197.377c0,2.099,0.875,3.674,2.499,3.674
			c1.475,0,2.425-1.475,2.425-3.674c0-1.825-0.7-3.675-2.425-3.675C608.567,193.702,607.893,195.577,607.893,197.377z"/>
		<path fill="#444444" d="M618.843,195.177c0-1.524-0.05-2.824-0.1-3.898h3.299l0.175,1.674h0.075c0.5-0.774,1.75-1.949,3.774-1.949
			c2.499,0,4.374,1.649,4.374,5.249v7.248h-3.8v-6.773c0-1.574-0.55-2.649-1.924-2.649c-1.05,0-1.675,0.725-1.925,1.425
			c-0.1,0.225-0.15,0.6-0.15,0.95v7.048h-3.799V195.177z"/>
	</g>
</g>
<g id="Layer_5">
</g>
</svg>
