<svg xmlns="http://www.w3.org/2000/svg" width="841.458" height="328.483" xmlns:v="https://vecta.io/nano"><style><![CDATA[.B{stroke-width:2.614}.C{stroke-linecap:round}.D{fill:none}.E{stroke-width:.937}.F{fill:#ef5b2b}.G{stroke:#cb4727}.H{stroke:#f28f20}.I{stroke:#f69320}.J{fill:#c5e8fc}.K{stroke:#76a7c1}.L{stroke:#27a7df}.M{stroke:#a8a8a5}.N{fill:#f4f4f2}.O{fill:#099147}.P{stroke:#028844}.Q{stroke:#40b449}.R{stroke-miterlimit:10}]]></style><g class="R"><path d="M377.343 108.412h75.909v29.445h-75.909z" class="E F G"/><g class="D B C"><path d="M447.378 111.809v22.842m-5.887-22.842v22.842m-5.886-22.842v22.842m-5.886-22.842v22.842m-5.89-22.842v22.842m-5.886-22.842v22.842m-5.889-22.842v22.842m-5.882-22.842v22.842m-5.891-22.842v22.842m-5.882-22.842v22.842m-5.889-22.842v22.842" class="H"/><path d="M382.624 111.809v22.842" class="I"/></g><path d="M299.468 139.423h75.909v29.445h-75.909z" class="E F G"/><path d="M369.543 142.551v22.842m-5.889-22.842v22.842m-5.886-22.842v22.842m-5.887-22.842v22.842m-5.886-22.842v22.842m-5.89-22.842v22.842m-5.885-22.842v22.842m-5.886-22.842v22.842m-5.89-22.842v22.842m-5.882-22.842v22.842m-5.889-22.842v22.842m-5.887-22.842v22.842" class="B C D H"/><g class="M"><path d="M299.505 108.412h75.909v29.445h-75.909z" class="E N"/><path d="M369.543 111.809v22.842m-5.889-22.842v22.842m-5.886-22.842v22.842m-5.887-22.842v22.842m-5.886-22.842v22.842m-5.89-22.842v22.842m-5.885-22.842v22.842m-5.886-22.842v22.842m-5.89-22.842v22.842m-5.882-22.842v22.842m-5.889-22.842v22.842m-5.887-22.842v22.842" class="B C D"/></g><path d="M377.343 169.899h75.909v29.441h-75.909z" class="E F G"/><g class="D B C"><path d="M447.378 173.296v22.84m-5.887-22.84v22.84m-5.886-22.84v22.84m-5.886-22.84v22.84m-5.89-22.84v22.84m-5.886-22.84v22.84m-5.889-22.84v22.84m-5.882-22.84v22.84m-5.891-22.84v22.84m-5.882-22.84v22.84m-5.889-22.84v22.84" class="H"/><path d="M382.624 173.296v22.84" class="I"/></g><path d="M299.505 169.899h75.909v29.441h-75.909z" class="E O P"/><path d="M369.543 173.296v22.84m-5.889-22.84v22.84m-5.886-22.84v22.84m-5.887-22.84v22.84m-5.886-22.84v22.84m-5.89-22.84v22.84m-5.885-22.84v22.84m-5.886-22.84v22.84m-5.89-22.84v22.84m-5.882-22.84v22.84m-5.889-22.84v22.84m-5.887-22.84v22.84" class="B C D Q"/><path d="M221.669 169.899h75.908v29.441h-75.908z" class="E F G"/><g class="D B C"><path d="M291.703 173.296v22.84m-5.886-22.84v22.84m-5.886-22.84v22.84m-5.89-22.84v22.84m-5.883-22.84v22.84m-5.889-22.84v22.84m-5.887-22.84v22.84m-5.884-22.84v22.84m-5.892-22.84v22.84m-5.881-22.84v22.84m-5.89-22.84v22.84" class="H"/><path d="M226.949 173.296v22.84" class="I"/></g><path d="M377.343 139.154h75.909v29.445h-75.909z" class="E J K"/><path d="M447.378 142.551v22.842m-5.887-22.842v22.842m-5.886-22.842v22.842m-5.886-22.842v22.842m-5.89-22.842v22.842m-5.886-22.842v22.842m-5.889-22.842v22.842m-5.882-22.842v22.842m-5.891-22.842v22.842m-5.882-22.842v22.842m-5.889-22.842v22.842m-5.886-22.842v22.842" class="B C D L"/><path d="M221.669 108.412h75.908v29.445h-75.908z" class="E F G"/><g class="D B C"><path d="M291.703 111.809v22.842m-5.886-22.842v22.842m-5.886-22.842v22.842m-5.89-22.842v22.842m-5.883-22.842v22.842m-5.889-22.842v22.842m-5.887-22.842v22.842m-5.884-22.842v22.842m-5.892-22.842v22.842m-5.881-22.842v22.842m-5.89-22.842v22.842" class="H"/><path d="M226.949 111.809v22.842" class="I"/></g><path d="M221.669 139.154h75.908v29.445h-75.908z" class="E J K"/><path d="M291.707 142.551v22.842m-5.89-22.842v22.842m-5.886-22.842v22.842m-5.89-22.842v22.842m-5.883-22.842v22.842m-5.889-22.842v22.842m-5.887-22.842v22.842m-5.884-22.842v22.842m-5.887-22.842v22.842m-5.886-22.842v22.842m-5.886-22.842v22.842m-5.887-22.842v22.842" class="B C D L"/><path d="M608.63 108.412h75.91v29.445h-75.91z" class="E F G"/><g class="D B C"><path d="M678.663 111.809v22.842m-5.884-22.842v22.842m-5.884-22.842v22.842m-5.889-22.842v22.842m-5.89-22.842v22.842m-5.885-22.842v22.842m-5.885-22.842v22.842m-5.887-22.842v22.842m-5.886-22.842v22.842m-5.888-22.842v22.842m-5.884-22.842v22.842" class="H"/><path d="M613.912 111.809v22.842" class="I"/></g><path d="M530.757 139.423h75.909v29.445h-75.909z" class="E F G"/><path d="M600.831 142.551v22.842m-5.889-22.842v22.842m-5.887-22.842v22.842m-5.885-22.842v22.842m-5.886-22.842v22.842m-5.887-22.842v22.842m-5.889-22.842v22.842m-5.882-22.842v22.842m-5.891-22.842v22.842m-5.881-22.842v22.842m-5.891-22.842v22.842m-5.889-22.842v22.842" class="B C D H"/><g class="M"><path d="M530.794 108.412h75.908v29.445h-75.908z" class="E N"/><path d="M600.831 111.809v22.842m-5.889-22.842v22.842m-5.887-22.842v22.842m-5.885-22.842v22.842m-5.886-22.842v22.842m-5.887-22.842v22.842m-5.889-22.842v22.842m-5.882-22.842v22.842m-5.891-22.842v22.842m-5.881-22.842v22.842m-5.891-22.842v22.842m-5.889-22.842v22.842" class="B C D"/></g><path d="M608.63 169.899h75.91v29.441h-75.91z" class="E F G"/><g class="D B C"><path d="M678.663 173.296v22.84m-5.884-22.84v22.84m-5.884-22.84v22.84m-5.889-22.84v22.84m-5.89-22.84v22.84m-5.885-22.84v22.84m-5.885-22.84v22.84m-5.887-22.84v22.84m-5.886-22.84v22.84m-5.888-22.84v22.84m-5.884-22.84v22.84" class="H"/><path d="M613.912 173.296v22.84" class="I"/></g><path d="M530.794 169.899h75.908v29.441h-75.908z" class="E O P"/><path d="M600.831 173.296v22.84m-5.889-22.84v22.84m-5.887-22.84v22.84m-5.885-22.84v22.84m-5.886-22.84v22.84m-5.887-22.84v22.84m-5.889-22.84v22.84m-5.882-22.84v22.84m-5.891-22.84v22.84m-5.881-22.84v22.84m-5.891-22.84v22.84m-5.889-22.84v22.84" class="B C D Q"/><path d="M452.96 169.899h75.905v29.441H452.96z" class="E F G"/><g class="D B C"><path d="M522.991 173.296v22.84m-5.887-22.84v22.84m-5.885-22.84v22.84m-5.887-22.84v22.84m-5.886-22.84v22.84m-5.89-22.84v22.84m-5.885-22.84v22.84m-5.882-22.84v22.84m-5.89-22.84v22.84m-5.882-22.84v22.84m-5.891-22.84v22.84" class="H"/><path d="M458.237 173.296v22.84" class="I"/></g><path d="M608.63 139.154h75.91v29.445h-75.91z" class="E J K"/><path d="M678.663 142.551v22.842m-5.884-22.842v22.842m-5.884-22.842v22.842m-5.889-22.842v22.842m-5.89-22.842v22.842m-5.885-22.842v22.842m-5.885-22.842v22.842m-5.887-22.842v22.842m-5.886-22.842v22.842m-5.888-22.842v22.842m-5.884-22.842v22.842m-5.889-22.842v22.842" class="B C D L"/><path d="M452.96 108.412h75.905v29.445H452.96z" class="E F G"/><g class="D B C"><path d="M522.991 111.809v22.842m-5.887-22.842v22.842m-5.885-22.842v22.842m-5.887-22.842v22.842m-5.886-22.842v22.842m-5.89-22.842v22.842m-5.885-22.842v22.842m-5.882-22.842v22.842m-5.89-22.842v22.842m-5.882-22.842v22.842m-5.891-22.842v22.842" class="H"/><path d="M458.237 111.809v22.842" class="I"/></g><path d="M452.96 139.154h75.909v29.445H452.96z" class="E J K"/><path d="M522.993 142.551v22.842m-5.889-22.842v22.842m-5.881-22.842v22.842m-5.891-22.842v22.842m-5.886-22.842v22.842m-5.89-22.842v22.842m-5.885-22.842v22.842m-5.882-22.842v22.842m-5.89-22.842v22.842m-5.882-22.842v22.842m-5.891-22.842v22.842m-5.884-22.842v22.842" class="B C D L"/><path d="M455.483 45.897h75.909v29.449h-75.909z" class="E F G"/><g class="D B C"><path d="M525.521 49.299v22.837m-5.889-22.837v22.837m-5.884-22.837v22.837m-5.889-22.837v22.837m-5.89-22.837v22.837m-5.882-22.837v22.837m-5.891-22.837v22.837m-5.882-22.837v22.837m-5.888-22.837v22.837m-5.886-22.837v22.837m-5.888-22.837v22.837" class="H"/><path d="M460.764 49.299v22.837" class="I"/></g><path d="M377.612 76.917h75.908v29.441h-75.908z" class="E F G"/><path d="M447.684 80.043v22.838m-5.89-22.838v22.838m-5.883-22.838v22.838m-5.885-22.838v22.838m-5.891-22.838v22.838m-5.885-22.838v22.838m-5.886-22.838v22.838m-5.886-22.838v22.838m-5.89-22.838v22.838m-5.882-22.838v22.838m-5.891-22.838v22.838m-5.889-22.838v22.838" class="B C D H"/><g class="M"><path d="M377.649 45.897h75.905v29.449h-75.905z" class="E N"/><path d="M447.684 49.299v22.837m-5.89-22.837v22.837m-5.883-22.837v22.837m-5.885-22.837v22.837m-5.891-22.837v22.837m-5.885-22.837v22.837m-5.886-22.837v22.837m-5.886-22.837v22.837m-5.89-22.837v22.837m-5.882-22.837v22.837m-5.891-22.837v22.837m-5.889-22.837v22.837" class="B C D"/></g><path d="M455.483 107.384h75.909v29.449h-75.909z" class="E F G"/><g class="D B C"><path d="M525.521 110.786v22.835m-5.889-22.835v22.835m-5.884-22.835v22.835m-5.889-22.835v22.835m-5.89-22.835v22.835m-5.882-22.835v22.835m-5.891-22.835v22.835m-5.882-22.835v22.835m-5.888-22.835v22.835m-5.886-22.835v22.835m-5.888-22.835v22.835" class="H"/><path d="M460.764 110.786v22.835" class="I"/></g><path d="M377.649 107.384h75.905v29.449h-75.905z" class="E O P"/><path d="M447.684 110.786v22.835m-5.89-22.835v22.835m-5.883-22.835v22.835m-5.885-22.835v22.835m-5.891-22.835v22.835m-5.885-22.835v22.835m-5.886-22.835v22.835m-5.886-22.835v22.835m-5.89-22.835v22.835m-5.882-22.835v22.835m-5.891-22.835v22.835m-5.889-22.835v22.835" class="B C D Q"/><path d="M299.812 107.384h75.91v29.449h-75.91z" class="E F G"/><g class="D B C"><path d="M369.847 110.786v22.835m-5.89-22.835v22.835m-5.884-22.835v22.835m-5.888-22.835v22.835m-5.887-22.835v22.835m-5.885-22.835v22.835m-5.887-22.835v22.835m-5.885-22.835v22.835m-5.89-22.835v22.835m-5.883-22.835v22.835m-5.889-22.835v22.835" class="H"/><path d="M305.089 110.786v22.835" class="I"/></g><path d="M455.483 76.64h75.909v29.445h-75.909z" class="E J K"/><path d="M525.521 80.043v22.838m-5.889-22.838v22.838m-5.884-22.838v22.838m-5.889-22.838v22.838m-5.89-22.838v22.838m-5.882-22.838v22.838m-5.891-22.838v22.838m-5.882-22.838v22.838m-5.888-22.838v22.838m-5.886-22.838v22.838m-5.888-22.838v22.838m-5.888-22.838v22.838" class="B C D L"/><path d="M299.812 45.897h75.91v29.449h-75.91z" class="E F G"/><g class="D B C"><path d="M369.847 49.299v22.837m-5.89-22.837v22.837m-5.884-22.837v22.837m-5.888-22.837v22.837m-5.887-22.837v22.837m-5.885-22.837v22.837m-5.887-22.837v22.837m-5.885-22.837v22.837m-5.89-22.837v22.837m-5.883-22.837v22.837m-5.889-22.837v22.837" class="H"/><path d="M305.089 49.299v22.837" class="I"/></g><path d="M299.812 76.64h75.91v29.445h-75.91z" class="E J K"/><path d="M369.847 80.043v22.838m-5.89-22.838v22.838m-5.884-22.838v22.838m-5.888-22.838v22.838m-5.887-22.838v22.838m-5.885-22.838v22.838m-5.887-22.838v22.838m-5.885-22.838v22.838m-5.89-22.838v22.838m-5.883-22.838v22.838m-5.889-22.838v22.838m-5.882-22.838v22.838" class="B C D L"/></g><path fill="#050000" d="M805.186 179.04h-95.741l30.403-21.177h65.338v21.177zm-86.603-2.87h83.731v-15.438h-61.562l-22.169 15.438z"/><path d="M787.27 160.023h2.871v17.041h-2.871zm-15.627 0h2.868v17.041h-2.868zm-15.634 0h2.87v17.041h-2.87zm-18.757 0h2.871v17.041h-2.871zM85.608 140.817h2.87v12.366h-2.87zm-9.379 0h2.872v12.366h-2.872zm-9.376 0h2.87v12.366h-2.87zm49.009-58.897h2.872v15.494h-2.872zm-9.381 0h2.872v15.494h-2.872zm-9.375 0h2.87v15.494h-2.87zm121.901 0h2.87v15.494h-2.87z"/><g stroke="#000" class="D R"><path stroke-width="2.87" d="M126.35 81.756V97.25"/><path d="M135.89 81.43v15.494m9.377-15.494v15.494m9.379-15.494v15.494m9.38-15.494v15.494m9.38-15.494v15.494m9.378-15.494v15.494m9.376-15.494v15.494" stroke-width="3.123"/></g><path d="M200.27 81.92h2.87v15.494h-2.87zm9.381 0h2.87v15.494h-2.87z"/><path fill="#fff" d="M64.075 200.106l-52.966.019 71.05 82.509h663.667l81.523-104.43H667.942l-33.509 21.663-410.283.166V97.324H96.084v55.825H64.16z"/><linearGradient id="A" gradientUnits="userSpaceOnUse" x1="429.086" y1="256.604" x2="429.086" y2="312.09"><stop offset=".788" stop-color="#f05e44"/><stop offset="1" stop-color="#ca3135"/></linearGradient><path fill="url(#A)" d="M750.509 282.631s23.942 1.039 23.942 29.148h-663.14l-27.59-29.148h666.788z"/><path fill="#e6e1e5" d="M82.159 282.634h663.667l80.677-103.586h-81.199l-87.451 94.21H83.72h-8.851z"/><path fill="#0f0f0f" d="M748.478 210.62c0 2.811 2.28 5.095 5.091 5.095h2.84c2.81 0 5.09-2.284 5.09-5.1v-14.956c0-2.81-2.28-5.094-5.09-5.094h-2.84c-2.811 0-5.091 2.284-5.091 5.094v14.961z"/><path d="M148.274 112.86h71.2v10.026h-71.2zm-.332 37.18h71.199v10.028h-71.199zm51.142 22.992h9.362v12.029h-9.362zm-25.005 0h9.362v12.029h-9.362zm-25.001 0h9.359v12.029h-9.359zm-25.001 0h9.357v12.029h-9.357zm-25.005 0h9.356v12.029h-9.356zm-25.001 0h9.355v12.029h-9.355zm31.254-43.756h9.356v12.03h-9.356zm18.755 0h9.359v12.03h-9.359z" fill="#444348"/><path d="M60.971 139.381h35.092v2.872H60.971zm27.127-58.897h144.491v2.871H88.098z"/><path d="M563.669 264.095c-10.896 0-19.761-8.863-19.761-19.763s8.864-19.764 19.761-19.764a19.79 19.79 0 0 1 19.763 19.764c0 10.899-8.865 19.763-19.763 19.763zm0-33.787c-7.732 0-14.021 6.291-14.021 14.024a14.04 14.04 0 0 0 14.021 14.023c7.731 0 14.021-6.29 14.021-14.023s-6.29-14.024-14.021-14.024zm-59.383 33.787c-10.897 0-19.763-8.863-19.763-19.763s8.866-19.764 19.763-19.764 19.762 8.865 19.762 19.764-8.864 19.763-19.762 19.763zm0-33.787c-7.732 0-14.022 6.291-14.022 14.024s6.29 14.023 14.022 14.023a14.04 14.04 0 0 0 14.021-14.023c0-7.733-6.289-14.024-14.021-14.024zm-59.39 33.787c-10.899 0-19.765-8.863-19.765-19.763a19.79 19.79 0 0 1 19.765-19.764c10.899 0 19.763 8.865 19.763 19.764a19.79 19.79 0 0 1-19.763 19.763zm0-33.787c-7.734 0-14.026 6.291-14.026 14.024s6.292 14.023 14.026 14.023a14.04 14.04 0 0 0 14.021-14.023c0-7.733-6.29-14.024-14.021-14.024zm-193.787 33.787c-10.899 0-19.765-8.863-19.765-19.763a19.79 19.79 0 0 1 19.765-19.764c10.899 0 19.762 8.865 19.762 19.764s-8.864 19.763-19.762 19.763zm0-33.787c-7.733 0-14.025 6.291-14.025 14.024s6.292 14.023 14.025 14.023a14.04 14.04 0 0 0 14.022-14.023c0-7.733-6.289-14.024-14.022-14.024zm-59.394 33.787c-10.899 0-19.765-8.863-19.765-19.763a19.79 19.79 0 0 1 19.765-19.764c10.899 0 19.767 8.865 19.767 19.764s-8.868 19.763-19.767 19.763zm0-33.787c-7.733 0-14.025 6.291-14.025 14.024s6.292 14.023 14.025 14.023 14.025-6.29 14.025-14.023-6.291-14.024-14.025-14.024z" fill="#0f0f0f"/><path d="M599.434 214.965c0 4.054 3.284 7.342 7.345 7.342a7.34 7.34 0 0 0 7.341-7.342c0-4.058-3.283-7.346-7.341-7.346s-7.345 3.288-7.345 7.346zm-65.639 0c0 4.054 3.289 7.342 7.344 7.342 4.061 0 7.347-3.288 7.347-7.342a7.35 7.35 0 0 0-7.347-7.346c-4.055 0-7.344 3.288-7.344 7.346zm-65.64 0c0 4.054 3.289 7.342 7.348 7.342s7.347-3.288 7.347-7.342a7.35 7.35 0 0 0-7.347-7.346 7.35 7.35 0 0 0-7.348 7.346zm-62.512 0c0 4.054 3.287 7.342 7.344 7.342 4.063 0 7.348-3.288 7.348-7.342a7.35 7.35 0 0 0-7.348-7.346 7.34 7.34 0 0 0-7.344 7.346zm-62.51 0c0 4.054 3.288 7.342 7.347 7.342s7.343-3.288 7.343-7.342-3.285-7.346-7.343-7.346-7.347 3.288-7.347 7.346zm-62.511 0c0 4.054 3.29 7.342 7.343 7.342 4.061 0 7.349-3.288 7.349-7.342a7.35 7.35 0 0 0-7.349-7.346c-4.053 0-7.343 3.288-7.343 7.346zm-62.511 0c0 4.054 3.288 7.342 7.347 7.342s7.344-3.288 7.344-7.342-3.286-7.346-7.344-7.346-7.347 3.288-7.347 7.346zm-65.639 0c0 4.054 3.288 7.342 7.347 7.342a7.35 7.35 0 0 0 7.349-7.342 7.35 7.35 0 0 0-7.349-7.346c-4.059 0-7.347 3.288-7.347 7.346z" fill="#e2e2e2"/><path fill="#fff" d="M128.927 97.907v-19.86a5.1 5.1 0 0 1 5.097-5.101h57.028c2.819 0 5.106 2.284 5.106 5.101v19.859h-67.231z"/><path d="M173.198 97.361V82.428c0-1.965 1.599-3.565 3.573-3.565h4.348c1.966 0 3.57 1.6 3.57 3.565v14.933h-11.491zm-22.923-11.188a2.55 2.55 0 0 0 2.552 2.545h10.101c1.412 0 2.552-1.14 2.552-2.545v-5.012a2.55 2.55 0 0 0-2.552-2.553h-10.101a2.55 2.55 0 0 0-2.552 2.553v5.012zm-18.335-.254a2.55 2.55 0 0 0 2.548 2.548h10.169a2.55 2.55 0 0 0 2.549-2.548v-4.568a2.55 2.55 0 0 0-2.549-2.548h-10.169c-1.404 0-2.548 1.144-2.548 2.548v4.568z" fill="#1375bb"/><path fill="#fff" d="M138.644 73.16h27.05V48.496l-27.05-3.574z"/><path fill="#eb2027" d="M138.561 51.594h27.086v7.403h-27.086z"/><path fill="#fff" d="M146.738 24.828h10.651v24.526h-10.651z"/></svg>