<svg xmlns="http://www.w3.org/2000/svg" xmlns:xlink="http://www.w3.org/1999/xlink" width="1920" height="1200" xmlns:v="https://vecta.io/nano"><style><![CDATA[.B{opacity:.2}.C{fill:#fff}.D{fill:#03214f}.E{fill:none}.F{stroke:#efefef}.G{fill:#ff8317}.H{stroke:#c9540e}.I{stroke:#d41d39}.J{fill:#e94a4f}.K{stroke:#fc7289}.L{stroke:#bbe2ff}.M{fill:#3195f3}.N{stroke:#0978d4}.O{stroke:#bdbdbd}.P{fill:#d7d7d7}.Q{fill:#dfeff6}.R{stroke:#ffebde}.S{stroke:#f3f1f2}.T{fill:#6c7980}.U{fill:#4c4f51}.V{fill:#1e2426}.W{fill:#78bed8}.X{fill:#75c1d9}.Y{fill:#fffdff}.Z{stroke-miterlimit:10}.a{fill:#d4d4d4}.b{stroke:#afafaf}]]></style><linearGradient id="A" gradientUnits="userSpaceOnUse" x1="957.807" y1="848.745" x2="957.807" y2="-8.995"><stop offset=".172" stop-color="#fff"/><stop offset=".348" stop-color="#bceffe"/><stop offset=".488" stop-color="#8ce3fe"/><stop offset=".512" stop-color="#7adffe"/><stop offset=".598" stop-color="#3fd1fe"/><stop offset=".661" stop-color="#1ac8fe"/><stop offset=".695" stop-color="#0cc5fe"/><stop offset=".732" stop-color="#09c4fe"/><stop offset=".857" stop-color="#02c3fe"/></linearGradient><path fill="url(#A)" d="M-13.193-8.995h1942v857.739h-1942z"/><path fill="#1579b7" d="M-14.979 778.334h1942v502.45h-1942z"/><path d="M-14.851 749.688h1942v20.077h-1942z" class="Q"/><path fill="#77c2d9" d="M-7.479 761.738h1942v20.984h-1942z"/><g class="C"><use xlink:href="#C"/><use xlink:href="#D"/><use xlink:href="#D" x="8.008"/><use xlink:href="#C" y="7.007"/><use xlink:href="#D" y="7.007"/><use xlink:href="#D" x="8.008" y="7.007"/><use xlink:href="#C" y="14.014"/><use xlink:href="#D" y="14.014"/><use xlink:href="#D" x="8.008" y="14.014"/><path d="M1043.854 739.555h3.168v3.166h-3.168z"/><use xlink:href="#E"/><use xlink:href="#E" x="8.008"/><path d="M1065.874 739.555h3.168v3.166h-3.168z"/><use xlink:href="#E" x="22.02"/><use xlink:href="#C" y="28.028"/><use xlink:href="#D" y="28.028"/><use xlink:href="#D" x="8.008" y="28.028"/><use xlink:href="#C" x="22.02" y="28.028"/><use xlink:href="#D" x="22.02" y="28.028"/></g><g fill="#819ab0"><path d="M551.001 627.988c-.313 0-.62-.146-.815-.42-.317-.449-.216-1.074.234-1.396l21.313-15.188a1 1 0 0 1 1.396.232c.32.448.216 1.073-.232 1.396L551.584 627.8a1 1 0 0 1-.583.188z"/><path d="M382.784 536.134h7.212V523.81h35.961v11.925h11.319v24.042h-11.119v7.109h-36.161v-6.961l-7.212-.017v-7.438m85.305-5.014l6.708 11.628 7.028-11.214 6.132 11.369 7.694-11.615 6.706 11.734 6.489-11.774 7.276 12.03 7.837-12.058 7.563 11.95 6.866-11.644 6.585 11.376 7.37-11.884 7.058 12.007 7.646-12.146 6.806 11.943 7.237-12.474 7.466 9.167 1.863-1.519-9.663-11.868-6.886 11.868-6.719-11.799-7.684 12.197-7.066-12.035-7.355 11.86-6.637-11.467-6.957 11.798-7.464-11.791-7.79 11.984-7.449-12.312-6.431 11.667-6.521-11.406-7.632 11.524-6.188-11.472-7.101 11.324-6.813-11.813-7.109 12.555-7.979-12.648-6.935 12.656-8.231-12.567-.539-.07v3.805l.061-.075 8.896 13.578 6.893-12.587 7.947 12.596 7.022-12.378zm-85.358 9.992l-44.533.02V552.4h43.425l1.146.033v-2.441l-1.101.003h-45.874v8.68l.097 1.197 46.84-.018v-2.406zm54.732-12.715h.012 148.813c11.802.451 14.957 9.208 15.742 12.62l-164.789.068v2.409l.187-.005 167.37-.07-.139-1.324c-.019-.152-1.8-15.471-18.324-16.104H437.276m166.186 16.23s-1.053-13.822-10.788-14.426h-2.585l-3.935 14.426h17.308zm-242.3-23.106h-25.579v23.754h25.579v-23.754zm55.713-34.108l-17.78-71.198.147 91.261v2.404l17.632.014.001-22.481h0zm-15.347-51.572l12.944 51.721v22.479l-12.824-.013-.12-74.187zm14.514 71.825l-12.211-8.81 12.943-7.157-12.086-7.205 8.948-7.727-10.028-6.451 7.297-5.546-7.964-7.245 3.984-9.926-5.247-15.82-2.282.756 4.97 14.984-4.28 10.659 7.063 6.428-7.729 5.874 10.209 6.569-9.036 7.802 11.354 6.769-12.601 6.971 15.286 11.022 1.41-1.947zm-15.13-91.659c-2.929 0-5.308 2.378-5.308 5.313s2.378 5.31 5.308 5.31a5.31 5.31 0 0 0 0-10.623zm-.586 10.253l-2.125-1.104-62.508 96.567 2.02 1.305 55.654-85.979-34.74 85.877 2.23.899 39.469-97.565zm189.416 102.502l-185.92-107.785-1.208 2.081 185.92 107.785 1.208-2.081zm-7.316 16.767h-18.332v4.808h18.332v-4.808zm-7.514 2.103h-2.404v30.652h2.404v-30.652zm2.255 30.203h-6.912v5.709h6.912v-5.709zM417.19 566.943h-17.827V741.59l-.054 2.538 17.881.003V566.943h0zm-15.422 0h13.018v174.783l-13.021-.002.003-174.781zm13.114 167.135l-10.487-7.941 11.365-7.33-10.767-6.1 11.748-7.478-11.971-7.747 12.077-5.687-11.303-8.382 11.81-7.011-11.969-6.167 11.645-7.764-12.065-8.161 11.196-6.141-10.87-6.887 11.201-6.862-12.206-7.181 11.68-7.075-11.8-8.579 12.53-7.004-11.826-6.09 12.332-6.692-12.845-8.563 11.533-5.594-11.498-10.702-4.155.021 11.469 10.038-12.18 5.907 13.023 8.679-12.819 6.959 11.886 6.12-11.901 6.651 11.913 8.662-12.033 7.295 12.225 7.188-11.075 6.787 10.688 6.771-11.079 6.072 12.366 8.363-12.068 8.043 11.744 6.052-11.185 6.638 10.974 8.144-12.354 5.813 12.459 8.063-11.964 7.611 10.791 6.111-10.911 7.04 13.225 10.019 1.451-1.909zm7.178.24h-30.536v14.366h30.536v-14.366zM580.972 608.66c0-3.606-2.636-6.612-6.085-7.188v-4.364h-2.404v6.672h1.201a4.89 4.89 0 0 1 4.887 4.882 4.89 4.89 0 0 1-4.887 4.885c-2.264 0-4.219-1.536-4.746-3.734l-2.338.563c.791 3.282 3.705 5.576 7.084 5.576 4.02-.004 7.288-3.271 7.288-7.292z"/><path d="M595.813 628.052a1.01 1.01 0 0 1-.543-.16l-23.432-15.158a1.001 1.001 0 1 1 1.086-1.682l23.432 15.159a1 1 0 0 1 .299 1.384 1.01 1.01 0 0 1-.842.457zm78.625-21.936a.84.84 0 0 0 .688-.354c.271-.38.183-.904-.197-1.179l-18.003-12.828c-.381-.27-.906-.184-1.178.197a.84.84 0 0 0 .197 1.178l18.003 12.83c.15.105.322.156.49.156z"/><path d="M816.536 542.277v6.281l-6.092.015v5.88h-30.546v-6.007h-9.396v-20.311h9.563v-10.07h30.377v10.409h6.092m-66.131 20.035l6.713-10.64 5.823 10.632 7.514-11.47.051.063v-3.215l-.456.063-6.955 10.615-5.854-10.689-6.741 10.686-6.005-10.604-5.755 9.979-5.996-9.565-5.229 9.688-6.444-9.734-5.508 9.634-5.433-9.854-6.292 10.399-6.58-10.125-6.305 9.959-5.876-9.965-5.607 9.685-6.213-10.019-5.971 10.167-6.488-10.305-5.676 9.969-5.817-10.026-8.163 10.026 1.574 1.278 6.308-7.744 6.113 10.538 5.749-10.09 6.459 10.26 5.959-10.144L679.53 548l5.563-9.609 5.801 9.835 6.391-10.095 6.62 10.185 6.146-10.162 5.484 9.944 5.665-9.911 6.499 9.813 5.18-9.604 5.937 9.474 5.668-9.823 5.919 10.462zm66.177.006l39.566.017.082-1.013v-7.33h-38.75l-.933-.004v2.063l.968-.028h36.685v4.28l-37.618-.016v2.031h0zm-46.075-14.805H644.593c-13.958.536-15.465 13.475-15.479 13.604l-.118 1.117 141.382.062.157.004v-2.035l-139.201-.059c.663-2.883 3.328-10.279 13.297-10.662h125.705.01m-125.603 11.677l-3.323-12.185h-2.184c-8.227.508-9.113 12.185-9.113 12.185h14.62zm190.058.548h21.607v-20.063h-21.607v20.063zm-47.063-29.89l14.895-.01v-2.033l.125-77.089-15.02 60.144v18.988zm12.864.117l-10.834.01v-18.99l10.937-43.688-.103 62.668zm-10.97-.35l12.913-9.313-10.644-5.888 9.59-5.719-7.632-6.59 8.624-5.549-6.528-4.962 5.966-5.432-3.616-9.004 4.198-12.655-1.928-.641-4.433 13.363 3.363 8.384-6.728 6.12 6.164 4.688-8.474 5.447 7.561 6.526-10.209 6.086 10.934 6.045-10.313 7.441 1.192 1.653zm7.104-74.587c0 2.478 2.007 4.484 4.483 4.484s4.483-2.01 4.483-4.484-2.009-4.484-4.483-4.484a4.48 4.48 0 0 0-4.483 4.484zm38.322 86.593l1.884-.763-29.346-72.543 47.012 72.63 1.707-1.103-52.803-81.573-1.795.934 33.341 82.418zm-192.326 5.926l157.052-91.051-1.021-1.759-157.052 91.05 1.021 1.76zm5.161 16.466h15.485v-4.063h-15.485v4.063zm6.347 23.61h2.031v-25.895h-2.031v25.895zm-1.905 4.441h5.839v-4.821h-5.839v4.821zm135.137 164.921l15.104-.002-.045-2.145V554.503H787.47l.002 190.71h0zm13.03-2.033l-11 .002V554.503H800.5l.002 188.677zm.086-3.819l-7.816-7.912 7.993-9.162-8.067-11.688 8.179-7.761-8.667-7.5 9.319-6.683-9.218-5.947 9.114-5.164-10.104-6.43 10.522-6.813-10.436-4.908 9.27-6.878-9.447-5.606 9.922-5.11-10.194-6.794 10.446-7.063-9.359-5.13 9.028-5.72-9.355-5.732 10.327-6.07-10.165-6.162 10.063-7.315-10.055-5.619 10.041-5.168-10.828-5.881 11.002-7.33-10.289-4.99 9.688-8.479-3.51-.02-9.713 9.042 9.742 4.724-10.854 7.233 10.417 5.652-9.989 5.146 10.584 5.916-9.968 7.246 9.867 5.977-10.312 6.066 9.463 5.797-9.185 5.818 9.458 5.184-10.189 6.896 9.837 6.558-10.111 5.209 9.979 5.922-9.551 7.08 10.202 4.801-10.11 6.545 9.925 6.316-9.095 5.15 9.601 6.19-8.859 6.709 8.44 7.372-8.445 7.551 8.364 11.744-8.188 9.465 11.198 11.293.088-3.567zm-17.231 9.698h25.795v-6.134h-25.795v6.134zm-128.08-153.16c2.854 0 5.313-1.938 5.981-4.711l-1.975-.479a4.11 4.11 0 0 1-4.011 3.156c-2.274 0-4.127-1.852-4.127-4.125s1.853-4.125 4.127-4.125h1.016v-5.636h-2.032v3.688c-2.913.486-5.14 3.023-5.14 6.072.005 3.399 2.765 6.16 6.161 6.16z"/><path d="M636.585 606.169a.84.84 0 0 0 .458-.135l19.793-12.809c.393-.254.504-.773.25-1.168s-.777-.504-1.167-.25l-19.793 12.807c-.392.254-.504.775-.25 1.168.161.25.433.387.709.387z"/></g><path d="M2.972 750.384H13.05v-12.669h20.155v11.228h5.182v-22.17h11.516v12.956h19.868v4.032h3.167v-8.638l8.925-6.91 7.342 7.342v14.251h75.58v-17.564h13.533v10.942h10.222l7.918-6.047 8.35 8.349v-6.046l11.804-5.469v25.625H-5.378v-9.246z" class="Q"/><path d="M40.146 699.237v-7.508h2.292v-3.919h11.429v3.789h3.597v2.146 1.192 4.304H53.93v2.26H42.438v-2.26l-2.292-.004zm17.337-4.289l2.827 4.313 2.191-4 2.525 4.003 2.229-3.938 2.133 3.694 2.233-3.563 1.949 3.613 2.445-3.69 2.131 3.729 2.063-3.742 2.313 3.823 2.491-3.832 2.403 3.798 2.182-3.7 2.093 3.615 2.342-3.776 2.242 3.816 2.43-3.86 2.162 3.796 2.3-3.964 2.373 2.913.592-.479-3.071-3.771-2.188 3.771-2.135-3.75-2.441 3.878-2.247-3.825-2.337 3.769-2.109-3.644-2.211 3.75-2.372-3.747-2.476 3.809-2.368-3.912-2.044 3.708-2.071-3.625-2.426 3.663-1.967-3.646-2.255 3.6-2.164-3.754-2.259 3.989-2.536-4.021-2.203 4.022-2.776-4.081m-17.347 2.422l-14.917.014v2.758l-.125.382 15.042-.022v-3.132zm-14.153.776h13.655l.006 1.634-13.662-.021.001-1.613h0zm84.727 2.339l-.044-.421c-.005-.052-.572-4.917-5.824-5.118H57.474v.764h47.346c3.751.146 4.754 2.928 5.003 4.013l-52.385.021v.765l53.265-.024zm-.424-.383s-.334-4.396-3.429-4.584h-.821l-1.25 4.584h5.5zm-77.005-7.341h-8.129v7.549h8.129v-7.549zm12.102-3.702l5.604.006v-7.145l-5.65-22.628m.773 6.238l4.114 16.438v8.959l-4.076-.005-.038-25.392zm4.612 22.827l-3.881-2.802 4.114-2.272-3.841-2.29 2.844-2.455-3.187-2.051 2.319-1.765-2.531-2.304 1.266-3.153-1.667-5.025-.725.239 1.58 4.763-1.36 3.388 2.244 2.044-2.456 1.865 3.245 2.089-2.872 2.479 3.608 2.149-4.005 2.215 4.858 3.506.447-.62zm-4.808-29.13a1.69 1.69 0 0 0-1.688 1.688 1.69 1.69 0 0 0 1.688 1.688 1.69 1.69 0 0 0 1.688-1.688c0-.933-.755-1.688-1.688-1.688zm-.186 3.258l-.675-.353-19.866 30.69.642.415 17.688-27.326-11.041 27.293.708.286 12.544-31.005zm60.197 32.576l-59.086-34.257-.383.661 59.087 34.255.382-.659zm-2.324 5.33h-5.826v1.526h5.826v-1.526zm-2.388.668h-.764v9.742h.764v-9.742zm.716 9.598h-2.197v1.813h2.197v-1.813zm-50.842-7.882h-5.666v55.499l-.017.807 5.683.001v-56.307zm-4.901.051h4.137v55.491h-4.138l.001-55.491zm4.168 53.06l-3.333-2.521 3.612-2.33-3.422-1.938 3.733-2.376-3.805-2.462 3.838-1.807-3.592-2.665 3.753-2.229-3.804-1.961 3.701-2.468-3.834-2.594 3.559-1.951-3.455-2.188 3.56-2.184-3.879-2.28 3.712-2.25-3.75-2.728 3.982-2.227-3.758-1.938 3.919-2.126-4.083-2.722 3.666-1.777-3.635-3.382-.872.01 3.177 3.169-3.871 1.877 4.139 2.76-4.074 2.212 3.777 1.944-3.782 2.112 3.786 2.754-3.824 2.317 3.885 2.283-3.52 2.156 3.396 2.15-3.521 1.932 3.93 2.656-3.835 2.558 3.732 1.923L46 738.465l3.487 2.587-3.926 1.85 3.96 2.563-3.802 2.419 3.429 1.943-3.467 2.235 4.203 3.186.463-.61zm2.281.076h-9.705v5.67h9.705v-5.67zm50.504-39.935a2.32 2.32 0 0 0-1.934-2.285v-1.387h-.764v2.118h.382c.855 0 1.552.695 1.552 1.554a1.55 1.55 0 0 1-1.552 1.552c-.72 0-1.341-.486-1.509-1.188l-.743.181c.251 1.043 1.177 1.771 2.252 1.771a2.32 2.32 0 0 0 2.316-2.316zm91.769-35.928v3.063h-15.567v-3.063h-4.786v-5.825-1.618-2.904h4.873v-5.132h15.48v5.306h3.104v10.171l-3.104.002zm-20.37-7.508l-3.761 5.528-2.983-5.449-3.436 5.445-3.06-5.404-2.934 5.084-3.054-4.875-2.665 4.938-3.286-4.961-2.806 4.907-2.769-5.021-3.207 5.3-3.354-5.158-3.213 5.074-2.995-5.078-2.857 4.938-3.166-5.104-3.043 5.183-3.306-5.25-2.892 5.077-2.964-5.107-4.16 5.107.802.651 3.214-3.945 3.115 5.369 2.93-5.142 3.292 5.229 3.037-5.168 3.172 5.114 2.834-4.896 2.957 5.014 3.255-5.146 3.374 5.188 3.132-5.181 2.796 5.067 2.885-5.051 3.313 5 2.64-4.896 3.024 4.826 2.889-5.006 3.019 5.334 3.421-5.423 2.967 5.42 3.83-5.847m23.51 5.833l20.375.029-.17-.516v-3.734l-20.204-.019-.001 4.24h0zm19.17-1l-18.505.027.01-2.214h18.496l-.001 2.187h0zm-42.616 1.014v-1.034l-70.956-.029c.337-1.47 1.696-5.237 6.777-5.435h64.131v-1.034h-64.151c-7.113.272-7.882 6.864-7.889 6.934l-.06.569 72.148.029zm-64.124-.548l-1.693-6.208h-1.113c-4.191.258-4.644 6.208-4.644 6.208h7.45zm96.854.277h11.012V668.38h-11.012v10.224zm-16.329-55.555l-7.654 30.649v9.673l7.591-.005m-1.035 2.527l-5.521.006v-12.137l5.572-22.264-.051 34.395zm-5.591-2.637l6.581-4.747-5.424-2.998 4.887-2.913-3.89-3.356 4.396-2.829-3.329-2.528 3.041-2.767-1.842-4.589 2.14-6.45-.982-.326-2.26 6.813 1.716 4.271-3.429 3.118 3.142 2.389-4.316 2.777 3.852 3.325-5.203 3.102 5.572 3.081-5.256 3.791.604.836zm3.621-38.009c0 1.26 1.022 2.284 2.286 2.284s2.285-1.024 2.285-2.284a2.29 2.29 0 0 0-2.285-2.287c-1.262 0-2.286 1.022-2.286 2.287zm19.53 44.127l.959-.389-14.955-36.97 23.958 37.015.87-.563-26.909-41.567-.914.475 16.991 41.999zm-98.011 3.022l80.035-46.398-.519-.896-80.035 46.398.519.896zm2.63 8.39h7.892v-2.07h-7.892v2.07zm3.234 12.031h1.035v-13.196h-1.035v13.196zm-.97 2.263h2.976v-2.458h-2.976v2.458zm68.867 63.134h7.696l-.022-1.094v-75.174h-7.673l-.001 76.268h0zm6.639-1.035l-5.605.001v-75.165h5.604l.001 75.164zm-5.021-2.469l5.693-4.313-4.697-3.03 4.646-2.631-5.151-3.277 5.364-3.471-5.318-2.502 4.724-3.504-4.815-2.858 5.056-2.604-5.195-3.465 5.323-3.601-4.77-2.614 4.6-2.913-4.767-2.924 5.263-3.094-5.18-3.142 5.128-3.729-5.124-2.861 5.118-2.637-5.519-2.995 5.606-3.735-5.244-2.543 4.303-4.291-1.181-.015-4.923 4.581 4.964 2.408-5.529 3.687 5.308 2.88-5.09 2.623 5.393 3.017-5.08 3.691 5.029 3.046-5.254 3.094 4.822 2.954-4.68 2.964 4.819 2.644-5.193 3.513 5.013 3.343-5.153 2.654 5.084 3.02-4.866 3.606 5.198 2.445-5.153 3.335 5.058 3.22-4.635 2.625 4.893 3.155-4.515 3.42.627.824zm-3.715 6.351h13.144v-7.071h-13.144v7.071zm-65.272-58.028c1.456 0 2.71-.987 3.05-2.4l-1.006-.24c-.229.944-1.068 1.605-2.044 1.605-1.158 0-2.101-.941-2.101-2.104s.943-2.104 2.101-2.104h.519v-2.872h-1.036v1.88c-1.484.247-2.62 1.541-2.62 3.096a3.14 3.14 0 0 0 3.137 3.139z" class="W"/><path d="M85.784 756.728v-2.859h1.719v-31.517h20.821v17h10.123v13.944h1.72v3.056h4.584v-16.427h9.742v-5.541h20.629v22.35 4.584H43.378v-6.684h9.109v-20.44h14.959v22.54z" class="X"/><g class="Y"><path d="M55.426 737.313H58.1v2.674h-2.674zm6.118 0h2.674v2.674h-2.674zm-6.118 5.352H58.1v2.675h-2.674z"/><use xlink:href="#F"/><path d="M55.426 748.019H58.1v2.677h-2.674zm6.118 0h2.674v2.677h-2.674zm29.73-21.465h2.674v2.674h-2.674zm5.353 0h2.674v2.674h-2.674zm6.118 0h2.674v2.674h-2.674zm-11.471 5.353h2.674v2.674h-2.674zm5.353 0h2.674v2.674h-2.674zm6.118 0h2.674v2.674h-2.674z"/><use xlink:href="#F" x="29.73" y="-5.404"/><use xlink:href="#F" x="35.083" y="-5.404"/><use xlink:href="#F" x="41.201" y="-5.404"/><use xlink:href="#F" x="29.73" y="-0.051"/><use xlink:href="#F" x="35.083" y="-0.051"/><use xlink:href="#F" x="41.201" y="-0.051"/><use xlink:href="#F" x="46.554" y="-0.051"/><use xlink:href="#F" x="51.908" y="-0.051"/><use xlink:href="#F" x="29.73" y="5.303"/><use xlink:href="#F" x="35.083" y="5.303"/><use xlink:href="#F" x="41.201" y="5.303"/><use xlink:href="#F" x="46.554" y="5.303"/><use xlink:href="#F" x="51.908" y="5.303"/><use xlink:href="#F" x="65.668" y="-0.051"/><use xlink:href="#F" x="71.022" y="-0.051"/><use xlink:href="#F" x="77.139" y="-0.051"/><use xlink:href="#F" x="82.493" y="-0.051"/><use xlink:href="#F" x="87.846" y="-0.051"/><use xlink:href="#F" x="65.668" y="5.303"/><use xlink:href="#F" x="71.022" y="5.303"/><use xlink:href="#F" x="77.139" y="5.303"/><use xlink:href="#F" x="82.493" y="5.303"/><use xlink:href="#F" x="87.846" y="5.303"/><use xlink:href="#F" x="77.139" y="-5.404"/><use xlink:href="#F" x="82.493" y="-5.404"/><use xlink:href="#F" x="87.846" y="-5.404"/></g><path d="M206.37 750.384h10.077l.056-16.375 20.099 3.706v11.228h5.182v-22.17H253.3v12.956h19.867v4.032h3.168v-8.638l8.925-6.91 7.342 7.342v14.251h75.58v-17.564h13.533v10.942h10.222l7.917-6.047 8.351 8.349v-6.046l11.804-5.469v25.625H198.02v-9.246zm722.812-1.457h13.19v-16.58h26.378v14.696h6.782v-29.017h15.073v16.958h26.002v5.275h4.146v-11.304l11.683-9.044 9.607 9.61v18.651h98.919v-22.987h17.712v14.32h13.379l10.362-7.914 10.929 10.928v-7.915l15.449-7.158v33.538h-290.54v-12.1z" class="Q"/><path d="M977.834 681.988v-9.827h3v-5.126h14.958v4.959h4.708v2.808 1.563 5.631h-4.625v2.958h-15.041v-2.958l-3-.008zm22.691-5.614l3.697 5.646 2.867-5.234 3.309 5.238 2.918-5.153 2.791 4.837 2.923-4.664 2.551 4.729 3.2-4.829 2.789 4.881 2.697-4.897 3.026 5.005 3.26-5.016 3.146 4.971 2.854-4.843 2.739 4.731 3.064-4.942 2.936 4.994 3.182-5.052 2.829 4.968 3.013-5.188 3.104 3.813.775-.631-4.021-4.938-2.864 4.938-2.795-4.907-3.191 5.073-2.94-5.006-3.06 4.933-2.764-4.771-2.894 4.907-3.104-4.903-3.237 4.983-3.102-5.12-2.675 4.854-2.711-4.744-3.175 4.794-2.574-4.771-2.952 4.711-2.834-4.912-2.957 5.222-3.316-5.263-2.885 5.266-3.635-5.342m-22.696 3.168l-19.521.018v3.609l-.164.497 19.688-.03v-4.094h-.003zm-18.524 1.017h17.872l.009 2.141-17.881-.027v-2.114zm110.891 3.061l-.058-.554c-.007-.063-.749-6.436-7.622-6.696h-61.986v1h61.97c4.907.188 6.222 3.83 6.548 5.25l-68.563.027v1l69.711-.027zm-.555-.5s-.438-5.75-4.487-6h-1.075l-1.637 6h7.199zm-100.784-9.61h-10.64v9.881h10.64v-9.881zm15.84-4.846l7.334.005v-9.347l-7.396-29.615m1.012 8.164l5.384 21.513v11.729l-5.334-.007-.05-33.235zm6.037 29.875l-5.079-3.664 5.384-2.979-5.024-2.997 3.722-3.214-4.171-2.685 3.035-2.308-3.313-3.016 1.657-4.129-2.183-6.58-.949.314 2.064 6.23-1.777 4.436 2.938 2.674-3.215 2.441 4.247 2.731-3.759 3.245 4.723 2.813-5.241 2.897 6.358 4.586.583-.795zm-6.293-38.125c-1.219 0-2.208.986-2.208 2.209a2.21 2.21 0 0 0 2.208 2.208 2.21 2.21 0 0 0 2.209-2.208 2.21 2.21 0 0 0-2.209-2.209zm-.244 4.265l-.884-.459-26 40.167.84.543 23.149-35.764-14.45 35.721.928.375 16.417-40.583zm78.787 42.636l-77.333-44.833-.502.864 77.333 44.833.502-.864zm-3.043 6.973h-7.625v2h7.625v-2zm-3.125.875h-1v12.75h1v-12.75zm.938 12.564h-2.875v2.375h2.875v-2.375zm-66.542-10.318h-7.416v72.638l-.021 1.057 7.438.001v-73.696h-.001zm-6.416.068h5.414v72.627l-5.416-.001.002-72.626zm5.456 69.444l-4.359-3.304 4.728-3.051-4.479-2.535 4.887-3.109-4.979-3.223 5.021-2.363-4.701-3.487 4.912-2.916-4.979-2.563 4.844-3.229-5.021-3.395 4.656-2.556-4.521-2.863 4.657-2.854-5.075-2.985 4.855-2.941-4.907-3.568 5.214-2.913-4.921-2.533 5.13-2.781-5.345-3.563 4.8-2.325-4.759-4.428-1.142.014 4.157 4.146-5.066 2.457 5.417 3.609-5.332 2.896 4.944 2.546-4.95 2.769 4.955 3.604-5.005 3.033 5.085 2.989-4.606 2.822 4.445 2.814-4.607 2.525 5.146 3.479-5.021 3.347 4.887 2.519-4.652 2.762 4.564 3.386-5.141 2.419 5.184 3.354-4.979 3.166 4.488 2.543-4.538 2.928 5.501 4.167.608-.809zm2.985.1H981.47v7.421h12.701v-7.421h0zm66.1-52.267a3.04 3.04 0 0 0-2.531-2.99v-1.813h-1v2.771h.5c1.12 0 2.031.911 2.031 2.031s-.911 2.031-2.031 2.031c-.942 0-1.755-.641-1.978-1.556l-.973.233a3.02 3.02 0 0 0 2.947 2.318c1.675.006 3.035-1.353 3.035-3.025zm120.107-47.023v4.01h-20.374v-4.01h-6.264v-7.626-2.116-3.803h6.377v-6.718h20.261v6.943h4.063v13.311l-4.063.009zm-26.66-9.827l-4.922 7.233-3.904-7.132-4.495 7.127-4.006-7.072-3.84 6.653-3.997-6.381-3.484 6.464-4.304-6.493-3.672 6.427-3.623-6.571-4.195 6.937-4.391-6.752-4.205 6.646-3.92-6.647-3.738 6.46-4.145-6.682-3.983 6.778-4.327-6.87-3.783 6.646-3.881-6.688-5.442 6.688 1.05.854 4.207-5.165 4.077 7.023 3.834-6.728 4.309 6.842 3.978-6.765 4.148 6.693 3.711-6.41 3.868 6.563 4.263-6.731 4.416 6.792 4.1-6.776 3.659 6.633 3.774-6.609 4.336 6.544 3.455-6.402 3.957 6.314 3.781-6.552 3.951 6.979 4.479-7.097 3.886 7.092 5.012-7.647m30.759 7.623l26.666.04-.223-.676v-4.89l-26.443-.021v5.547zm25.09-1.309l-24.221.037.016-2.896h24.207l-.002 2.859h0zm-55.777 1.327v-1.354l-92.867-.039c.441-1.925 2.22-6.856 8.87-7.111h83.934v-1.354h-83.961c-9.31.356-10.313 8.983-10.324 9.071l-.075.747 94.423.04zm-83.925-.717l-2.219-8.126h-1.457c-5.482.338-6.076 8.126-6.076 8.126h9.752zm126.762.364h14.412v-13.384h-14.412v13.384zm-21.371-72.713l-10.018 40.112v12.659l9.935-.007m-1.354 3.31l-7.226.006V622.47l7.293-29.139-.067 45.015zm-7.317-3.45l8.612-6.213-7.102-3.926 6.396-3.813-5.091-4.396 5.754-3.701-4.356-3.311 3.979-3.621-2.411-6.006 2.8-8.44-1.285-.428-2.957 8.913 2.245 5.594-4.487 4.081 4.112 3.126-5.647 3.636 5.041 4.354-6.812 4.06 7.292 4.031-6.879 4.964.796 1.096zm4.738-49.747a2.99 2.99 0 1 0 2.989-2.993 2.99 2.99 0 0 0-2.989 2.993zm25.561 57.753l1.256-.51-19.572-48.384 31.355 48.441 1.138-.734-35.218-54.407-1.196.622 22.237 54.972zm-128.275 3.952l104.748-60.729-.68-1.173-104.749 60.729.681 1.173zm3.441 10.985h10.328v-2.71h-10.328v2.71zm4.232 15.746h1.354v-17.271h-1.354v17.271zm-1.269 2.962h3.896v-3.217h-3.896v3.217zm90.133 82.63h10.072l-.029-1.432v-98.388h-10.043v99.82zm8.689-1.356l-7.336.001v-98.375h7.335l.001 98.374zm-6.572-3.231l7.451-5.644-6.146-3.966 6.079-3.444-6.738-4.289 7.02-4.542-6.96-3.273 6.186-4.586-6.306-3.739 6.617-3.408-6.799-4.532 6.967-4.712-6.242-3.422 6.021-3.813-6.238-3.823 6.888-4.051-6.776-4.107 6.712-4.881-6.706-3.747 6.698-3.449-7.226-3.921 7.338-4.891-6.86-3.328 5.632-5.615-1.546-.021-6.443 5.996 6.497 3.151-7.236 4.823 6.947 3.77-6.662 3.436 7.061 3.943-6.647 4.834 6.582 3.986-6.877 4.046 6.313 3.866-6.125 3.88 6.309 3.458-6.797 4.598 6.563 4.373-6.744 3.479 6.653 3.949-6.368 4.724 6.806 3.201-6.743 4.363 6.618 4.214-6.065 3.436 6.404 4.131-5.909 4.478.797 1.069zm-4.861 7.151h17.203v-8.099h-17.203v8.099zm-85.428-74.785a4.09 4.09 0 0 0 3.992-3.143l-1.316-.315a2.74 2.74 0 0 1-2.676 2.104c-1.516 0-2.75-1.232-2.75-2.751s1.234-2.752 2.75-2.752h.679v-3.759h-1.354v2.46c-1.942.323-3.429 2.019-3.429 4.051-.002 2.264 1.839 4.105 4.104 4.105z" class="W"/><path d="M1037.564 757.229v-3.74h2.25v-41.25h27.25v22.25h13.25v18.25h2.25v4h6v-21.5h12.75v-7.25h27v29.25 6h-146.25v-8.75h11.922v-26.75h19.578v29.5z" class="X"/><path d="M997.833 731.821h3.5v3.5h-3.5zm8.008 0h3.5v3.5h-3.5zm-8.008 7.005h3.5v3.5h-3.5zm8.008 0h3.5v3.5h-3.5zm-8.008 7.007h3.5v3.5h-3.5zm8.008 0h3.5v3.5h-3.5zm38.91-28.094h3.5v3.5h-3.5zm7.007 0h3.5v3.5h-3.5zm8.006 0h3.5v3.5h-3.5zm-15.013 7.007h3.5v3.5h-3.5zm7.007 0h3.5v3.5h-3.5zm8.006 0h3.5v3.5h-3.5zm-15.013 7.007h3.5v3.5h-3.5zm7.007 0h3.5v3.5h-3.5zm8.006 0h3.5v3.5h-3.5zm-15.013 7.006h3.5v3.5h-3.5zm7.007 0h3.5v3.5h-3.5zm8.006 0h3.5v3.5h-3.5zm7.007 0h3.5v3.5h-3.5zm7.006 0h3.5v3.5h-3.5zm-29.026 7.008h3.5v3.5h-3.5zm7.007 0h3.5v3.5h-3.5zm8.006 0h3.5v3.5h-3.5zm7.007 0h3.5v3.5h-3.5zm7.006 0h3.5v3.5h-3.5zm18.01-7.008h3.5v3.5h-3.5zm7.007 0h3.5v3.5h-3.5zm8.006 0h3.5v3.5h-3.5zm7.007 0h3.5v3.5h-3.5zm7.006 0h3.5v3.5h-3.5zm-29.026 7.008h3.5v3.5h-3.5zm7.007 0h3.5v3.5h-3.5zm8.006 0h3.5v3.5h-3.5zm7.007 0h3.5v3.5h-3.5zm7.006 0h3.5v3.5h-3.5zm-14.013-14.014h3.5v3.5h-3.5zm7.007 0h3.5v3.5h-3.5zm7.006 0h3.5v3.5h-3.5z" class="Y"/><path d="M1195.388 748.927h13.189l.073-21.43 26.305 4.85v14.696h6.782v-29.017h15.074v16.958h26.002v5.275h4.145v-11.304l11.682-9.044 9.608 9.61v18.651h98.919v-22.987h17.712v14.32h13.379l10.362-7.914 10.929 10.928v-7.915l15.449-7.158v33.538h-290.539v-12.1zm714.474.775h-12.234v-15.381h-24.469v13.633h-6.292v-26.916h-13.982v15.731h-24.119v4.893h-3.846v-10.485l-10.837-8.391-8.912 8.913v17.303h-91.76v-21.324h-16.431v13.284h-12.41l-9.612-7.342-10.138 10.137v-7.34l-14.331-6.641v31.111H1920v-11.225z" class="Q"/><path d="M1861.949 687.613v2.744h-13.952v-2.744h-4.29v-5.226-1.447-2.604h4.367v-4.6h13.875v4.755h2.783v9.116l-2.783.006zm-18.258-6.729l-3.37 4.954-2.675-4.884-3.078 4.881-2.743-4.844-2.63 4.559-2.737-4.37-2.388 4.428-2.945-4.446-2.516 4.398-2.48-4.5-2.874 4.75-3.006-4.625-2.88 4.551-2.686-4.554-2.563 4.426-2.838-4.576-2.729 4.645-2.964-4.706-2.592 4.554-2.657-4.579-3.729 4.579.72.586 2.881-3.538 2.793 4.813 2.625-4.605 2.95 4.687 2.723-4.633 2.846 4.584 2.541-4.389 2.647 4.491 2.918-4.609 3.022 4.65 2.809-4.644 2.505 4.543 2.587-4.526 2.97 4.479 2.365-4.386 2.711 4.326 2.59-4.486 2.707 4.78 3.065-4.859 2.658 4.856 3.435-5.238m21.073 5.215l18.263.028-.151-.461v-3.352l-18.108-.016-.004 3.801h0zm17.184-.895l-16.586.024.008-1.983h16.578v1.959zm-38.199.907v-.928l-63.601-.025c.303-1.315 1.521-4.693 6.072-4.87h57.482v-.929h-57.5c-6.376.244-7.064 6.153-7.07 6.214l-.054.515 64.671.023zm-57.474-.488l-1.519-5.565h-.997c-3.757.231-4.162 5.565-4.162 5.565h6.678zm86.811.25h9.869v-9.164h-9.869v9.164zm-14.636-49.799l-6.857 27.474v8.671l6.803-.005m-.93 2.261l-4.948.005v-10.877l4.994-19.956-.046 30.828zm-5.011-2.364l5.896-4.254-4.86-2.688 4.381-2.612-3.484-3.01 3.938-2.535-2.98-2.269 2.727-2.479-1.651-4.111 1.918-5.781-.882-.292-2.022 6.104 1.537 3.83-3.072 2.795 2.814 2.141-3.869 2.488 3.453 2.981-4.664 2.778 4.994 2.763-4.712 3.396.538.755zm3.245-34.068a2.05 2.05 0 1 0 2.049-2.052c-1.133.003-2.049.92-2.049 2.052zm17.503 39.553l.858-.349-13.401-33.137 21.474 33.175.778-.503-24.117-37.262-.819.427 15.227 37.649zm-87.846 2.706l71.735-41.588-.466-.805-71.735 41.591.466.802zm2.356 7.523h7.072v-1.854h-7.072v1.854zm2.901 10.783h.93v-11.826h-.93v11.826zm-.872 2.029h2.666v-2.203h-2.666v2.203zm61.726 56.588l6.899-.001-.021-.979v-67.381h-6.879l.001 68.361h0zm5.952-.929l-5.024.001v-67.371h5.022l.002 67.37zm-4.501-2.212l5.103-3.865-4.21-2.716 4.164-2.359-4.616-2.938 4.81-3.11-4.769-2.243 4.233-3.141-4.315-2.563 4.531-2.334-4.656-3.104 4.771-3.229-4.275-2.345 4.125-2.61-4.271-2.619 4.717-2.771-4.643-2.813 4.597-3.344-4.592-2.563 4.586-2.361-4.946-2.688 5.025-3.35-4.699-2.278 3.854-3.848-1.059-.012-4.412 4.104 4.449 2.157-4.956 3.305 4.759 2.581-4.563 2.353 4.835 2.703-4.554 3.31 4.508 2.729-4.71 2.771 4.321 2.646-4.193 2.657 4.318 2.369-4.653 3.147 4.491 2.993-4.616 2.382 4.558 2.705-4.36 3.232 4.659 2.191-4.618 2.988 4.532 2.886-4.153 2.354 4.386 2.828-4.048 3.063.555.75zm-3.329 6.236h11.781v-6.884h-11.781v6.884zm-58.504-52.555a2.8 2.8 0 0 0 2.732-2.15l-.901-.218c-.203.85-.957 1.44-1.831 1.44a1.89 1.89 0 0 1-1.885-1.886c0-1.039.846-1.884 1.885-1.884h.464v-2.573h-.929v1.686a2.82 2.82 0 0 0-2.351 2.771 2.82 2.82 0 0 0 2.816 2.814zm-117.996-46.438v-12.349h3.77v-6.439h18.795v6.229h5.916v3.525 1.965 7.073h-5.812v3.719h-18.899v-3.719l-3.77-.004zm28.513-7.055l4.647 7.098 3.604-6.576 4.153 6.581 3.665-6.478 3.508 6.078 3.671-5.859 3.205 5.94 4.021-6.07 3.504 6.132 3.396-6.15 3.805 6.287 4.097-6.302 3.952 6.244 3.589-6.086 3.438 5.946 3.854-6.211 3.687 6.273 3.997-6.348 3.558 6.24 3.781-6.52 3.902 4.791.975-.792-5.051-6.203-3.6 6.203-3.512-6.167-4.017 6.375-3.692-6.288-3.847 6.195-3.468-5.991-3.639 6.166-3.898-6.161-4.068 6.265-3.896-6.437-3.36 6.1-3.403-5.961-3.99 6.021-3.234-5.996-3.708 5.919-3.562-6.172-3.715 6.563-4.172-6.611-3.621 6.616-4.565-6.713m-28.531 3.991l-24.529.021v4.535l-.207.625 24.736-.037v-5.144h0zm-23.274 1.277h22.455l.012 2.688-22.467-.035v-2.653zm139.332 3.846l-.073-.691c-.009-.082-.94-8.084-9.576-8.416h-77.885V655h77.858c6.17.236 7.816 4.813 8.229 6.598l-86.146.035v1.258l87.593-.041zm-.697-.628s-.551-7.226-5.639-7.538h-1.354l-2.057 7.538h9.05zm-126.632-12.076h-13.369v12.414h13.369v-12.414zm19.902-6.088l9.215.006V632.32l-9.291-37.211m1.269 10.259l6.766 27.029v14.729l-6.703-.006-.063-41.752zm7.585 37.536l-6.381-4.604 6.764-3.739-6.313-3.767 4.677-4.037-5.241-3.371 3.814-2.897-4.162-3.786 2.083-5.188-2.743-8.269-1.191.396 2.6 7.83-2.237 5.57 3.69 3.359-4.041 3.068 5.338 3.436-4.725 4.078 5.936 3.536-6.586 3.642 7.988 5.765.73-1.022zm-7.906-47.903c-1.532 0-2.774 1.242-2.774 2.776 0 1.528 1.242 2.771 2.774 2.771s2.775-1.242 2.775-2.771a2.78 2.78 0 0 0-2.775-2.776zm-.308 5.358l-1.109-.577-32.669 50.47 1.056.684 29.089-44.938-18.155 44.882 1.164.472 20.624-50.993zm98.995 53.572l-97.168-56.332-.63 1.088 97.168 56.331.63-1.087zm-3.823 8.761h-9.581v2.514h9.581v-2.514zm-3.927 1.099h-1.257v16.021h1.257v-16.021zm1.178 15.785h-3.612v2.982h3.612v-2.982zm-83.608-12.961h-9.314v91.267l-.025 1.327h9.344v-92.594h-.005zm-8.061.083h6.804v91.255l-6.805-.001.001-91.254zm6.854 87.257l-5.479-4.151 5.938-3.831-5.627-3.188 6.143-3.908-6.256-4.049 6.312-2.97-5.905-4.381 6.172-3.664-6.256-3.228 6.088-4.056-6.308-4.268 5.853-3.207-5.684-3.601 5.854-3.586-6.381-3.753 6.104-3.697-6.167-4.484 6.548-3.657-6.181-3.188 6.444-3.497-6.713-4.475 6.024-2.924-5.979-5.563-1.435.019 5.226 5.209-6.366 3.088 6.809 4.535-6.7 3.638 6.217 3.199-6.224 3.476 6.228 4.528-6.287 3.813 6.389 3.756-5.786 3.55 5.584 3.537-5.79 3.175 6.463 4.37-6.307 4.203 6.138 3.162-5.847 3.471 5.732 4.255-6.453 3.038 6.512 4.213-6.254 3.979 5.641 3.194-5.703 3.68 6.912 5.234.757-.996zm3.751.123h-15.959v7.511h15.959v-7.511zm83.053-65.67c0-1.888-1.379-3.457-3.182-3.758v-2.282h-1.259v3.487h.631a2.56 2.56 0 0 1 2.552 2.553c0 1.406-1.146 2.552-2.552 2.552a2.54 2.54 0 0 1-2.48-1.951l-1.222.294c.411 1.716 1.937 2.913 3.702 2.913a3.81 3.81 0 0 0 3.81-3.808z" class="W"/><path d="M1809.324 757.404v-3.47h-2.088V715.67h-25.277v20.64h-12.291v16.928h-2.087v3.711h-5.565v-19.944h-11.828v-6.726h-25.045v27.134 5.566h135.666v-8.118h-11.06v-24.813h-18.162v27.365z" class="X"/><g class="Y"><use xlink:href="#G"/><use xlink:href="#H"/><use xlink:href="#G" y="6.498"/><use xlink:href="#H" y="6.498"/><path d="M1842.936 746.832h3.246v3.246h-3.246zm-7.43 0h3.247v3.246h-3.247z"/><use xlink:href="#G" x="-43.524" y="-13.063"/><use xlink:href="#H" x="-42.594" y="-13.063"/><use xlink:href="#I"/><path d="M1799.412 727.271h3.246v3.246h-3.246zm-6.5 0h3.247v3.246h-3.247z"/><use xlink:href="#J"/><use xlink:href="#G" x="-43.524" y="-0.063"/><use xlink:href="#H" x="-42.594" y="-0.063"/><use xlink:href="#I" y="13"/><use xlink:href="#G" x="-43.524" y="6.437"/><use xlink:href="#H" x="-42.594" y="6.437"/><use xlink:href="#I" y="19.5"/><use xlink:href="#I" x="-6.5" y="19.5"/><use xlink:href="#G" x="-70.45" y="6.437"/><path d="M1799.412 746.771h3.246v3.246h-3.246zm-6.5 0h3.247v3.246h-3.247z"/><use xlink:href="#J" y="19.5"/><use xlink:href="#J" x="-6.5" y="19.5"/><path d="M1772.486 746.771h3.246v3.246h-3.246zm-16.706-6.5h3.245v3.247h-3.245zm-6.5 0h3.245v3.247h-3.245z"/><use xlink:href="#I" x="-43.63" y="19.5"/><use xlink:href="#I" x="-50.13" y="19.5"/><use xlink:href="#G" x="-114.082" y="6.437"/><path d="M1755.78 746.771h3.245v3.246h-3.245zm-6.5 0h3.245v3.246h-3.245z"/><use xlink:href="#J" x="-43.63" y="19.5"/><use xlink:href="#J" x="-50.13" y="19.5"/><path d="M1728.854 746.771h3.246v3.246h-3.246z"/><use xlink:href="#I" x="-43.63" y="13"/><use xlink:href="#I" x="-50.13" y="13"/><use xlink:href="#G" x="-114.082" y="-0.063"/></g><path d="M1662.924 749.702h-12.235l-.068-19.879-24.401 4.498v13.633h-6.291v-26.916h-13.983v15.731h-24.12v4.893h-3.846v-10.485l-10.835-8.391-8.915 8.913v17.303h-91.758v-21.324h-16.43v13.284h-12.41l-9.612-7.342-10.139 10.137v-7.34l-14.331-6.641v31.111h269.513v-11.225z" class="Q"/><path fill="#dad9da" d="M296.833 613.653h66.834v147.46h-84.332V654.979h17.332z"/><g fill="#86a0ba"><use xlink:href="#K"/><use xlink:href="#K" x="17.014"/><use xlink:href="#K" x="35.028"/><use xlink:href="#K" y="17.013"/><use xlink:href="#K" x="17.014" y="17.013"/><use xlink:href="#K" x="35.028" y="17.013"/><use xlink:href="#K" y="34.027"/><use xlink:href="#K" x="17.014" y="34.027"/><use xlink:href="#K" x="35.028" y="34.027"/><use xlink:href="#K" y="51.038"/><use xlink:href="#K" x="17.014" y="51.038"/><use xlink:href="#K" x="35.028" y="51.038"/><use xlink:href="#K" y="68.051"/><use xlink:href="#K" x="17.014" y="68.051"/><use xlink:href="#K" x="35.028" y="68.051"/><circle cx="288.167" cy="665.317" r="4"/><circle cx="288.167" cy="682.332" r="4"/><circle cx="288.167" cy="699.345" r="4"/><path d="M343.673 613.822h-26.845v-4.834h11.005v-34.333h-3.166v-4.667H335.5v5.167h-2.833v33.667h11z"/><use xlink:href="#K" y="85.064"/><use xlink:href="#K" x="17.014" y="85.064"/><use xlink:href="#K" x="35.028" y="85.064"/><circle cx="288.167" cy="716.357" r="4"/><use xlink:href="#K" y="101.078"/><use xlink:href="#K" x="17.014" y="101.078"/><use xlink:href="#K" x="35.028" y="101.078"/><circle cx="288.167" cy="732.371" r="4"/><use xlink:href="#K" y="117.093"/><use xlink:href="#K" x="17.014" y="117.093"/><use xlink:href="#K" x="35.028" y="117.093"/><circle cx="288.167" cy="748.387" r="4"/></g><path fill="#27aae2" d="M312.823 712.804s-13.2 3.229-6.16 15.84c0 0 21.121 17.896 38.134 47.814h520.979s11.731-23.467 25.521-34.907c0 0 10.561-11.731 20.828-20.241 0 0 6.967-7.554-.513-15.031 0 0-1.102-1.32-4.182-2.2H758.266l-36.521 18.701h-310.21l-18.481-10.121H312.09"/><path fill="#3c4759" d="M353.012 796.259s-2.348-11-8.214-19.801h520.979s-4.693 15.549-4.107 19.362l-508.658.439z"/><path fill="#819aae" d="M313.997 703.709h64.535v9.095h-64.535z"/><g fill="#0168b5"><path d="M835.161 729.208h16.078v15.32h-16.078z"/><circle cx="764.232" cy="714.265" r="3.972"/><circle cx="795.938" cy="714.265" r="3.972"/><circle cx="828.211" cy="714.265" r="3.972"/><circle cx="859.916" cy="714.265" r="3.972"/><circle cx="891.621" cy="714.265" r="3.972"/></g><g stroke-width=".88" class="Z"><path d="M413 701.511h40.48v20.24H413z" class="G H"/><path d="M415.824 703.196v17.051m2.642-17.051v17.051m3.524-17.051v17.051m3.523-17.051v17.051m3.524-17.051v17.051m2.643-17.051v17.051m3.523-17.051v17.051m2.642-17.051v17.051m3.524-17.051v17.051m3.524-17.051v17.051m2.643-17.051v17.051m3.523-17.051v17.051" class="E R"/><path d="M413 680.369h40.48v20.24H413z" class="M N"/><g class="E L"><use xlink:href="#L"/><use xlink:href="#L" x="2.642"/><use xlink:href="#L" x="6.166"/><use xlink:href="#L" x="9.689"/><use xlink:href="#L" x="13.213"/><use xlink:href="#L" x="15.856"/><use xlink:href="#L" x="19.379"/><use xlink:href="#L" x="22.021"/><use xlink:href="#L" x="25.545"/><use xlink:href="#L" x="29.069"/><use xlink:href="#L" x="31.712"/><use xlink:href="#L" x="35.235"/></g><g class="O"><path d="M413.03 658.629h19.652v20.972H413.03z" class="P"/><path d="M422.895 658.224v21.56" class="E"/></g><path d="M414.57 660.754h4.987m-4.987 2.643h4.987m-4.987 2.642h4.987m-4.987 2.644h4.987m-4.987 2.641h4.987m-4.987 2.644h4.987m-4.987 2.642h4.987m1.76-16.004v16.941m3.192-16.941v16.941m1.509-16.793h4.987m-4.987 2.643h4.987m-4.987 2.642h4.987m-4.987 2.644h4.987m-4.987 2.641h4.987m-4.987 2.644h4.987m-4.987 2.642h4.987" class="F E"/><g class="H"><path d="M433.701 658.629h19.652v20.972h-19.652z" class="G"/><path d="M443.563 658.224v21.56" class="E"/></g><path d="M435.241 660.754h4.988m-4.988 2.643h4.988m-4.988 2.642h4.988m-4.988 2.644h4.988m-4.988 2.641h4.988m-4.988 2.644h4.988m-4.988 2.642h4.988m1.759-16.004v16.941m3.192-16.941v16.941m1.509-16.793h4.987m-4.987 2.643h4.987m-4.987 2.642h4.987m-4.987 2.644h4.987m-4.987 2.641h4.987m-4.987 2.644h4.987m-4.987 2.642h4.987" class="F E"/><use xlink:href="#M" fill="#d5d5d5" stroke="#aeaeaf"/><g class="E"><path d="M457.217 703.196v17.051m2.642-17.051v17.051m3.524-17.051v17.051m3.523-17.051v17.051m3.524-17.051v17.051m2.643-17.051v17.051m3.523-17.051v17.051m2.643-17.051v17.051m3.523-17.051v17.051m3.524-17.051v17.051m2.643-17.051v17.051" stroke="#f5f5f5"/><path d="M492.452 703.196v17.051" class="F"/></g><use xlink:href="#M" y="-21.142" class="G H"/><g class="E R"><use xlink:href="#L" x="41.393"/><use xlink:href="#L" x="44.035"/><use xlink:href="#L" x="47.559"/><use xlink:href="#L" x="51.082"/><use xlink:href="#L" x="54.606"/><use xlink:href="#L" x="57.249"/><use xlink:href="#L" x="60.772"/><use xlink:href="#L" x="63.415"/><use xlink:href="#L" x="66.938"/><use xlink:href="#L" x="70.462"/><use xlink:href="#L" x="73.105"/><use xlink:href="#L" x="76.628"/></g><g class="I"><use xlink:href="#N" class="J"/><path d="M464.287 658.224v21.56" class="E"/></g><path d="M455.963 660.754h4.987m-4.987 2.643h4.987m-4.987 2.642h4.987m-4.987 2.644h4.987m-4.987 2.641h4.987m-4.987 2.644h4.987m-4.987 2.642h4.987m1.76-16.004v16.941m3.192-16.941v16.941m1.509-16.793h4.987m-4.987 2.643h4.987m-4.987 2.642h4.987m-4.987 2.644h4.987m-4.987 2.641h4.987m-4.987 2.644h4.987m-4.987 2.642h4.987" class="K E"/><g stroke="#296490"><use xlink:href="#O" fill="#449ff0"/><path d="M484.958 658.224v21.56" class="E"/></g><path d="M476.633 660.754h4.988m-4.988 2.643h4.988m-4.988 2.642h4.988m-4.988 2.644h4.988m-4.988 2.641h4.988m-4.988 2.644h4.988m-4.988 2.642h4.988m1.759-16.004v16.941m3.193-16.941v16.941m1.509-16.793h4.987m-4.987 2.643h4.987m-4.987 2.642h4.987m-4.987 2.644h4.987m-4.987 2.641h4.987m-4.987 2.644h4.987m-4.987 2.642h4.987" stroke="#77c5ff" class="E"/><use xlink:href="#M" x="41.394" class="I J"/><path d="M498.612 703.196v17.051m2.642-17.051v17.051m3.524-17.051v17.051m3.523-17.051v17.051m3.524-17.051v17.051m2.643-17.051v17.051m3.523-17.051v17.051m2.643-17.051v17.051m3.524-17.051v17.051m3.522-17.051v17.051m2.644-17.051v17.051m3.524-17.051v17.051" class="E K"/><use xlink:href="#M" x="41.394" y="-21.142" class="a b"/><g class="E S"><use xlink:href="#L" x="82.788"/><use xlink:href="#L" x="85.43"/><use xlink:href="#L" x="88.954"/><use xlink:href="#L" x="92.477"/><use xlink:href="#L" x="96.001"/><use xlink:href="#L" x="98.644"/><use xlink:href="#L" x="102.167"/><use xlink:href="#L" x="104.81"/><use xlink:href="#L" x="108.334"/><use xlink:href="#L" x="111.856"/><use xlink:href="#L" x="114.5"/><use xlink:href="#L" x="118.024"/></g><g class="O"><path d="M495.818 658.629h19.652v20.972h-19.652z" class="P"/><path d="M505.682 658.224v21.56" class="E"/></g><path d="M497.358 660.754h4.987m-4.987 2.643h4.987m-4.987 2.642h4.987m-4.987 2.644h4.987m-4.987 2.641h4.987m-4.987 2.644h4.987m-4.987 2.642h4.987m1.76-16.004v16.941m3.192-16.941v16.941m1.509-16.793h4.987m-4.987 2.643h4.987m-4.987 2.642h4.987m-4.987 2.644h4.987m-4.987 2.641h4.987m-4.987 2.644h4.987m-4.987 2.642h4.987" class="F E"/><g class="H"><use xlink:href="#O" x="41.395" class="G"/><path d="M526.352 658.224v21.56" class="E"/></g><path d="M518.028 660.754h4.988m-4.988 2.643h4.988m-4.988 2.642h4.988m-4.988 2.644h4.988m-4.988 2.641h4.988m-4.988 2.644h4.988m-4.988 2.642h4.988m1.759-16.004v16.941m3.192-16.941v16.941m1.51-16.793h4.987m-4.987 2.643h4.987m-4.987 2.642h4.987m-4.987 2.644h4.987m-4.987 2.641h4.987m-4.987 2.644h4.987m-4.987 2.642h4.987" class="F E"/><use xlink:href="#P" class="M N"/><path d="M540.006 703.196v17.051m2.642-17.051v17.051m3.525-17.051v17.051m3.523-17.051v17.051m3.524-17.051v17.051m2.643-17.051v17.051m3.523-17.051v17.051m2.643-17.051v17.051m3.523-17.051v17.051m3.524-17.051v17.051m2.642-17.051v17.051m3.524-17.051v17.051" class="E L"/><use xlink:href="#P" y="-21.142" class="a b"/><g class="E S"><use xlink:href="#L" x="124.182"/><use xlink:href="#L" x="126.824"/><use xlink:href="#L" x="130.349"/><use xlink:href="#L" x="133.872"/><use xlink:href="#L" x="137.396"/><use xlink:href="#L" x="140.039"/><use xlink:href="#L" x="143.562"/><use xlink:href="#L" x="146.205"/><use xlink:href="#L" x="149.728"/><use xlink:href="#L" x="153.252"/><use xlink:href="#L" x="155.894"/><use xlink:href="#L" x="159.418"/></g><g class="I"><path d="M537.212 658.629h19.655v20.972h-19.655z" class="J"/><path d="M547.077 658.224v21.56" class="E"/></g><path d="M538.752 660.754h4.987m-4.987 2.643h4.987m-4.987 2.642h4.987m-4.987 2.644h4.987m-4.987 2.641h4.987m-4.987 2.644h4.987m-4.987 2.642h4.987m1.76-16.004v16.941m3.192-16.941v16.941m1.51-16.793h4.987m-4.987 2.643h4.987m-4.987 2.642h4.987m-4.987 2.644h4.987m-4.987 2.641h4.987m-4.987 2.644h4.987m-4.987 2.642h4.987" class="K E"/><g class="N"><use xlink:href="#N" x="103.461" class="M"/><path d="M567.747 658.224v21.56" class="E"/></g><path d="M559.423 660.754h4.987m-4.987 2.643h4.987m-4.987 2.642h4.987m-4.987 2.644h4.987m-4.987 2.641h4.987m-4.987 2.644h4.987m-4.987 2.642h4.987m1.76-16.004v16.941m3.192-16.941v16.941m1.51-16.793h4.985m-4.985 2.643h4.985m-4.985 2.642h4.985m-4.985 2.644h4.985m-4.985 2.641h4.985m-4.985 2.644h4.985m-4.985 2.642h4.985" class="L E"/><path d="M578.576 701.511h40.479v20.24h-40.479z" class="I J"/><g class="E"><path d="M540.006 703.196v17.051" class="L"/><path d="M584.042 703.196v17.051m3.524-17.051v17.051m3.523-17.051v17.051m3.524-17.051v17.051m2.643-17.051v17.051m3.523-17.051v17.051m2.643-17.051v17.051m3.523-17.051v17.051m3.524-17.051v17.051m2.643-17.051v17.051m3.524-17.051v17.051M581.4 703.196v17.051" class="K"/></g><path d="M578.576 680.369h40.479v20.24h-40.479z" class="G H"/><g class="E"><use xlink:href="#L" x="124.182" class="S"/><g class="R"><use xlink:href="#L" x="168.218"/><use xlink:href="#L" x="171.742"/><use xlink:href="#L" x="175.265"/><use xlink:href="#L" x="178.789"/><use xlink:href="#L" x="181.432"/><use xlink:href="#L" x="184.955"/><use xlink:href="#L" x="187.598"/><use xlink:href="#L" x="191.121"/><use xlink:href="#L" x="194.645"/><use xlink:href="#L" x="197.288"/><use xlink:href="#L" x="200.812"/><use xlink:href="#L" x="165.576"/></g></g><g class="I"><path d="M599.528 658.481h19.651v20.974h-19.651z" class="J"/><path d="M609.393 658.076v21.561" class="E"/></g><path d="M601.068 660.606h4.987m-4.987 2.644h4.987m-4.987 2.643h4.987m-4.987 2.643h4.987m-4.987 2.642h4.987m-4.987 2.643h4.987m-4.987 2.642h4.987m1.759-16.002v16.94m3.193-16.94v16.94m1.509-16.795h4.987m-4.987 2.644h4.987m-4.987 2.643h4.987m-4.987 2.643h4.987m-4.987 2.642h4.987m-4.987 2.643h4.987m-4.987 2.642h4.987" class="K E"/><use xlink:href="#P" x="101.282" class="G H"/><path d="M641.288 703.196v17.051m2.643-17.051v17.051m3.524-17.051v17.051m3.524-17.051v17.051m3.523-17.051v17.051m2.643-17.051v17.051m3.523-17.051v17.051m2.645-17.051v17.051m3.52-17.051v17.051m3.522-17.051v17.051M673 703.196v17.051m3.523-17.051v17.051" class="E R"/><use xlink:href="#P" x="101.282" y="-21.142" class="M N"/><g class="E L"><use xlink:href="#L" x="225.464"/><use xlink:href="#L" x="228.107"/><use xlink:href="#L" x="231.631"/><use xlink:href="#L" x="235.155"/><use xlink:href="#L" x="238.678"/><use xlink:href="#L" x="241.321"/><use xlink:href="#L" x="244.844"/><use xlink:href="#L" x="247.489"/><use xlink:href="#L" x="251.009"/><use xlink:href="#L" x="254.531"/><use xlink:href="#L" x="257.176"/><use xlink:href="#L" x="260.699"/></g><g class="O"><use xlink:href="#O" x="163.401" class="P"/><path d="M648.357 658.224v21.56" class="E"/></g><path d="M640.035 660.754h4.986m-4.986 2.643h4.986m-4.986 2.642h4.986m-4.986 2.644h4.986m-4.986 2.641h4.986m-4.986 2.644h4.986m-4.986 2.642h4.986m1.761-16.004v16.941m3.192-16.941v16.941m1.508-16.793h4.988m-4.988 2.643h4.988m-4.988 2.642h4.988m-4.988 2.644h4.988m-4.988 2.641h4.988m-4.988 2.644h4.988m-4.988 2.642h4.988" class="F E"/><g class="H"><use xlink:href="#N" x="204.743" class="G"/><path d="M669.029 658.224v21.56" class="E"/></g><path d="M660.705 660.754h4.987m-4.987 2.643h4.987m-4.987 2.642h4.987m-4.987 2.644h4.987m-4.987 2.641h4.987m-4.987 2.644h4.987m-4.987 2.642h4.987m1.76-16.004v16.941m3.193-16.941v16.941m1.508-16.793h4.988m-4.988 2.643h4.988m-4.988 2.642h4.988m-4.988 2.644h4.988m-4.988 2.641h4.988m-4.988 2.644h4.988m-4.988 2.642h4.988" class="F E"/><use xlink:href="#M" x="225.462" fill="#d5d5d5" stroke="#aeaeaf"/><g class="E"><path d="M682.682 703.196v17.051m2.642-17.051v17.051m3.524-17.051v17.051m3.523-17.051v17.051m3.524-17.051v17.051m2.643-17.051v17.051m3.523-17.051v17.051m2.643-17.051v17.051m3.523-17.051v17.051m3.524-17.051v17.051m2.642-17.051v17.051" stroke="#f5f5f5"/><path d="M717.917 703.196v17.051" class="F"/></g><use xlink:href="#M" x="225.462" y="-21.142" class="G H"/><g class="E R"><use xlink:href="#L" x="266.858"/><use xlink:href="#L" x="269.5"/><use xlink:href="#L" x="273.024"/><use xlink:href="#L" x="276.547"/><use xlink:href="#L" x="280.071"/><use xlink:href="#L" x="282.714"/><use xlink:href="#L" x="286.237"/><use xlink:href="#L" x="288.88"/><use xlink:href="#L" x="292.403"/><use xlink:href="#L" x="295.927"/><use xlink:href="#L" x="298.569"/><use xlink:href="#L" x="302.093"/></g><path d="M679.857 659.237h40.48v20.237h-40.48z" class="M N"/><path d="M682.682 660.922v17.051m2.642-17.051v17.051m3.524-17.051v17.051m3.523-17.051v17.051m3.524-17.051v17.051m2.643-17.051v17.051m3.523-17.051v17.051m2.643-17.051v17.051m3.523-17.051v17.051m3.524-17.051v17.051m2.642-17.051v17.051m3.524-17.051v17.051" class="E L"/><use xlink:href="#M" x="225.462" y="-62.535" class="O P"/><path d="M682.682 640.662v17.05m2.642-17.05v17.05m3.524-17.05v17.05m3.523-17.05v17.05m3.524-17.05v17.05m2.643-17.05v17.05m3.523-17.05v17.05m2.643-17.05v17.05m3.523-17.05v17.05m3.524-17.05v17.05m2.642-17.05v17.05m3.524-17.05v17.05" class="E F"/><path d="M475.53 637.214h40.479v20.24H475.53z" class="G H"/><path d="M478.354 638.9v17.05m2.642-17.05v17.05m3.524-17.05v17.05m3.523-17.05v17.05m3.523-17.05v17.05m2.643-17.05v17.05m3.523-17.05v17.05m2.643-17.05v17.05m3.523-17.05v17.05m3.524-17.05v17.05m2.642-17.05v17.05m3.524-17.05v17.05" class="E F"/><path d="M758.242 683.013h40.479v20.239h-40.479z" class="I J"/><path d="M761.064 684.697v17.051m2.645-17.051v17.051m3.521-17.051v17.051m3.525-17.051v17.051m3.523-17.051v17.051m2.643-17.051v17.051m3.524-17.051v17.051m2.642-17.051v17.051m3.524-17.051v17.051m3.523-17.051v17.051m2.643-17.051v17.051m3.524-17.051v17.051" class="E K"/><path d="M758.242 661.871h40.479v20.239h-40.479z" class="O P"/><path d="M761.064 663.556v17.05m2.645-17.05v17.05m3.521-17.05v17.05m3.525-17.05v17.05m3.523-17.05v17.05m2.643-17.05v17.05m3.524-17.05v17.05m2.642-17.05v17.05m3.524-17.05v17.05m3.523-17.05v17.05m2.643-17.05v17.05m3.524-17.05v17.05" class="E S"/><g class="O"><path d="M758.271 640.13h19.652v20.975h-19.652z" class="P"/><path d="M768.135 639.726v21.56" class="E"/></g><path d="M759.813 642.256h4.985m-4.985 2.642h4.985m-4.985 2.643h4.985m-4.985 2.643h4.985m-4.985 2.642h4.985m-4.985 2.643h4.985m-4.985 2.643h4.985m1.761-16.004v16.942m3.191-16.942v16.942m1.51-16.794h4.987m-4.987 2.642h4.987m-4.987 2.643h4.987m-4.987 2.643h4.987m-4.987 2.642h4.987m-4.987 2.643h4.987m-4.987 2.643h4.987" class="F E"/><g class="H"><path d="M778.942 640.13h19.652v20.975h-19.652z" class="G"/><path d="M788.806 639.726v21.56" class="E"/></g><path d="M780.482 642.256h4.988m-4.988 2.642h4.988m-4.988 2.643h4.988m-4.988 2.643h4.988m-4.988 2.642h4.988m-4.988 2.643h4.988m-4.988 2.643h4.988m1.759-16.004v16.942m3.192-16.942v16.942m1.509-16.794h4.987m-4.987 2.642h4.987m-4.987 2.643h4.987m-4.987 2.643h4.987m-4.987 2.642h4.987m-4.987 2.643h4.987m-4.987 2.643h4.987" class="F E"/><g class="H"><use xlink:href="#O" x="283.171" y="-40.376" class="G"/><path d="M768.128 617.848v21.561" class="E"/></g><path d="M759.804 620.378h4.987m-4.987 2.643h4.987m-4.987 2.642h4.987m-4.987 2.643h4.987m-4.987 2.643h4.987m-4.987 2.642h4.987m-4.987 2.643h4.987m1.76-16.005v16.942m3.192-16.942v16.942m1.509-16.793h4.987m-4.987 2.643h4.987m-4.987 2.642h4.987m-4.987 2.643h4.987m-4.987 2.643h4.987m-4.987 2.642h4.987m-4.987 2.643h4.987" class="F E"/><path d="M799.635 683.013h40.481v20.239h-40.481z" class="M N"/><path d="M802.458 684.697v17.051m2.644-17.051v17.051m3.523-17.051v17.051m3.523-17.051v17.051m3.524-17.051v17.051m2.642-17.051v17.051m3.524-17.051v17.051m2.642-17.051v17.051m3.524-17.051v17.051m3.524-17.051v17.051m2.642-17.051v17.051m3.524-17.051v17.051" class="E L"/><path d="M799.635 661.871h40.481v20.239h-40.481z" class="a b"/><path d="M802.458 663.556v17.05m2.644-17.05v17.05m3.523-17.05v17.05m3.523-17.05v17.05m3.524-17.05v17.05m2.642-17.05v17.05m3.524-17.05v17.05m2.642-17.05v17.05m3.524-17.05v17.05m3.524-17.05v17.05m2.642-17.05v17.05m3.524-17.05v17.05" class="E S"/><g class="I"><path d="M799.664 640.13h19.654v20.975h-19.654z" class="J"/><path d="M809.528 639.726v21.56" class="E"/></g><path d="M801.205 642.256h4.987m-4.987 2.642h4.987m-4.987 2.643h4.987m-4.987 2.643h4.987m-4.987 2.642h4.987m-4.987 2.643h4.987m-4.987 2.643h4.987m1.76-16.004v16.942m3.193-16.942v16.942m1.507-16.794h4.988m-4.988 2.642h4.988m-4.988 2.643h4.988m-4.988 2.643h4.988m-4.988 2.642h4.988m-4.988 2.643h4.988m-4.988 2.643h4.988" class="K E"/><g stroke="#296490"><path fill="#449ff0" d="M820.336 640.13h19.653v20.975h-19.653z"/><path d="M830.199 639.726v21.56" class="E"/></g><path d="M821.876 642.256h4.987m-4.987 2.642h4.987m-4.987 2.643h4.987m-4.987 2.643h4.987m-4.987 2.642h4.987m-4.987 2.643h4.987m-4.987 2.643h4.987m1.76-16.004v16.942m3.191-16.942v16.942m1.51-16.794h4.987m-4.987 2.642h4.987m-4.987 2.643h4.987m-4.987 2.643h4.987m-4.987 2.642h4.987m-4.987 2.643h4.987m-4.987 2.643h4.987" stroke="#77c5ff" class="E"/><path d="M841.03 683.013h40.479v20.239H841.03z" class="I J"/><path d="M843.854 684.697v17.051m2.642-17.051v17.051m3.524-17.051v17.051m3.524-17.051v17.051m3.523-17.051v17.051m2.642-17.051v17.051m3.523-17.051v17.051m2.643-17.051v17.051m3.523-17.051v17.051m3.524-17.051v17.051m2.642-17.051v17.051m3.525-17.051v17.051" class="E K"/><path d="M841.03 661.871h40.479v20.239H841.03z" class="G H"/><path d="M843.854 663.556v17.05m2.642-17.05v17.05m3.524-17.05v17.05m3.524-17.05v17.05m3.523-17.05v17.05m2.642-17.05v17.05m3.523-17.05v17.05m2.643-17.05v17.05m3.523-17.05v17.05m3.524-17.05v17.05m2.642-17.05v17.05m3.525-17.05v17.05" class="E F"/><g class="O"><path d="M841.061 640.13h19.653v20.975h-19.653z" class="P"/><path d="M850.924 639.726v21.56" class="E"/></g><path d="M842.6 642.256h4.986m-4.986 2.642h4.986m-4.986 2.643h4.986m-4.986 2.643h4.986m-4.986 2.642h4.986m-4.986 2.643h4.986m-4.986 2.643h4.986m1.761-16.004v16.942m3.192-16.942v16.942m1.509-16.794h4.987m-4.987 2.642h4.987m-4.987 2.643h4.987m-4.987 2.643h4.987m-4.987 2.642h4.987m-4.987 2.643h4.987m-4.987 2.643h4.987" class="F E"/><g class="H"><path d="M861.73 640.13h19.652v20.975H861.73z" class="G"/><path d="M871.594 639.726v21.56" class="E"/></g><path d="M863.271 642.256h4.987m-4.987 2.642h4.987m-4.987 2.643h4.987m-4.987 2.643h4.987m-4.987 2.642h4.987m-4.987 2.643h4.987m-4.987 2.643h4.987m1.76-16.004v16.942m3.192-16.942v16.942m1.509-16.794h4.987m-4.987 2.642h4.987m-4.987 2.643h4.987m-4.987 2.643h4.987m-4.987 2.642h4.987m-4.987 2.643h4.987m-4.987 2.643h4.987" class="F E"/></g><g opacity=".7"><path fill="#64a9d0" d="M436.321 798.313h-95.63a2.2 2.2 0 1 1 0-4.4h95.63a2.2 2.2 0 1 1 0 4.4zm29.774-6.894a2.2 2.2 0 0 0-2.2-2.2h-14.666a2.2 2.2 0 1 0 0 4.4h14.666a2.2 2.2 0 0 0 2.2-2.2zm-62.482 13.787a2.2 2.2 0 0 0-2.2-2.2h-26.694a2.2 2.2 0 0 0-2.2 2.2 2.2 2.2 0 0 0 2.2 2.199h26.694a2.2 2.2 0 0 0 2.2-2.199zm31.094 9.975a2.2 2.2 0 0 0-2.2-2.199h-36.081a2.2 2.2 0 0 0-2.201 2.199 2.2 2.2 0 0 0 2.201 2.199h36.081a2.2 2.2 0 0 0 2.2-2.199zm50.456-9.975a2.2 2.2 0 0 0-2.2-2.2h-51.335a2.2 2.2 0 0 0-2.2 2.2 2.2 2.2 0 0 0 2.2 2.199h51.335a2.2 2.2 0 0 0 2.2-2.199zm91.523-9.681c0-1.217-.983-2.2-2.198-2.2h-96.219c-1.215 0-2.198.983-2.198 2.2s.983 2.197 2.198 2.197h96.219c1.213.003 2.198-.982 2.198-2.197zm-57.497 19.068a2.2 2.2 0 0 0-2.199-2.199h-26.988a2.2 2.2 0 0 0-2.2 2.199 2.2 2.2 0 0 0 2.2 2.2h26.988a2.2 2.2 0 0 0 2.199-2.2zm33.149-9.681a2.2 2.2 0 0 0-2.201-2.199h-26.691a2.2 2.2 0 0 0-2.2 2.199 2.2 2.2 0 0 0 2.2 2.2h26.691a2.2 2.2 0 0 0 2.201-2.2zm-17.013 11.441a2.2 2.2 0 0 0-2.201-2.197h-5.28c-1.215 0-2.199.982-2.199 2.197s.983 2.2 2.199 2.2h5.28a2.2 2.2 0 0 0 2.201-2.2zm26.107-3.227a2.2 2.2 0 0 0-2.198-2.2h-3.521a2.2 2.2 0 1 0 0 4.4h3.521a2.2 2.2 0 0 0 2.198-2.2zm58.082-6.453a2.2 2.2 0 0 0-2.199-2.2h-52.51a2.2 2.2 0 0 0-2.199 2.2 2.2 2.2 0 0 0 2.199 2.199h52.51a2.2 2.2 0 0 0 2.199-2.199zm-29.921-14.961a2.2 2.2 0 0 0-2.2-2.199H582.7a2.2 2.2 0 0 0-2.2 2.199 2.2 2.2 0 0 0 2.2 2.2h4.692a2.2 2.2 0 0 0 2.201-2.2zm72.456 4.694a2.2 2.2 0 0 0-2.2-2.201H595.02a2.2 2.2 0 0 0-2.198 2.201c0 1.215.983 2.198 2.198 2.198h64.829a2.2 2.2 0 0 0 2.2-2.198zm-20.241 13.493a2.2 2.2 0 0 0-2.2-2.2H625.82a2.2 2.2 0 0 0-2.2 2.2c0 1.215.983 2.198 2.2 2.198h13.787c1.216.003 2.201-.983 2.201-2.198zm23.761-4.399a2.2 2.2 0 0 0-2.2-2.201h-14.667a2.2 2.2 0 1 0 0 4.4h14.667a2.2 2.2 0 0 0 2.2-2.199zm14.374-14.081a2.2 2.2 0 0 0-2.2-2.2h-4.987a2.2 2.2 0 1 0 0 4.4h4.987a2.2 2.2 0 0 0 2.2-2.2zm21.12 11.44c0-1.217-.982-2.2-2.198-2.2h-27.281a2.2 2.2 0 0 0-2.2 2.2 2.2 2.2 0 0 0 2.2 2.198h27.281c1.214.003 2.198-.983 2.198-2.198zm26.694 12.027a2.2 2.2 0 0 0-2.2-2.2h-35.789a2.2 2.2 0 0 0-2.197 2.2c0 1.216.982 2.2 2.197 2.2h35.789a2.2 2.2 0 0 0 2.2-2.2zm-13.493-9.974a2.2 2.2 0 0 0-2.199-2.199h-4.986a2.2 2.2 0 0 0-2.2 2.199 2.2 2.2 0 0 0 2.2 2.2h4.986a2.2 2.2 0 0 0 2.199-2.2zm-3.52-10.852a2.2 2.2 0 0 0-2.2-2.199h-5.28a2.2 2.2 0 0 0-2.199 2.199c0 1.217.984 2.199 2.199 2.199h5.28a2.2 2.2 0 0 0 2.2-2.199zm141.097 1.759c0-1.217-.982-2.2-2.2-2.2H716.464a2.2 2.2 0 0 0-2.2 2.2 2.2 2.2 0 0 0 2.2 2.198h133.178c1.215.004 2.199-.983 2.199-2.198zm-75.682 9.093a2.2 2.2 0 0 0-2.2-2.199h-52.802a2.2 2.2 0 0 0-2.2 2.199 2.2 2.2 0 0 0 2.2 2.2h52.802a2.2 2.2 0 0 0 2.2-2.2zm31.388 4.987a2.2 2.2 0 0 0-2.2-2.2h-24.054a2.2 2.2 0 0 0-2.2 2.2 2.2 2.2 0 0 0 2.2 2.198h24.054c1.216.003 2.2-.983 2.2-2.198zm59.549-5.28c0-1.215-.982-2.199-2.199-2.199h-53.39a2.2 2.2 0 0 0-2.2 2.199 2.2 2.2 0 0 0 2.2 2.2h53.39a2.2 2.2 0 0 0 2.199-2.2zm-8.507-14.96a2.2 2.2 0 0 0-2.2-2.2h-4.691a2.2 2.2 0 0 0-2.2 2.2 2.2 2.2 0 0 0 2.2 2.199h4.691a2.2 2.2 0 0 0 2.2-2.199zm22 6.453a2.2 2.2 0 0 0-2.2-2.2h-21.414a2.2 2.2 0 0 0-2.198 2.2c0 1.216.983 2.198 2.198 2.198h21.414c1.215.003 2.2-.982 2.2-2.198zm10.268-.293a2.2 2.2 0 0 0-2.2-2.2h-5.573a2.2 2.2 0 0 0-2.2 2.2 2.2 2.2 0 0 0 2.2 2.198h5.573c1.215.004 2.2-.983 2.2-2.198zm-6.161 6.746a2.2 2.2 0 0 0-2.2-2.2h-8.8a2.2 2.2 0 0 0-2.2 2.2 2.2 2.2 0 0 0 2.2 2.198h8.8c1.216.003 2.2-.983 2.2-2.198z"/></g><g class="Z"><path d="M550.294 626.753h46v22.999h-46z" class="M N"/><path d="M553.502 628.668v19.375m3.003-19.375v19.375m4.004-19.375v19.375m4.004-19.375v19.375m4.005-19.375v19.375m3.002-19.375v19.375m4.003-19.375v19.375m3.003-19.375v19.375m4.004-19.375v19.375m4.004-19.375v19.375m3.003-19.375v19.375m4.004-19.375v19.375" class="E L"/><path d="M633.359 605.734h46v22.999h-46z" class="I J"/><path d="M636.567 607.649v19.375m3.003-19.375v19.375m4.004-19.375v19.375m4.004-19.375v19.375m4.004-19.375v19.375m3.003-19.375v19.375m4.004-19.375v19.375m3.003-19.375v19.375m4.004-19.375v19.375m4.004-19.375v19.375m3.004-19.375v19.375m4.001-19.375v19.375" class="E K"/></g><use xlink:href="#Q" class="T"/><path d="M106.652 1173.396h44.025v27.675h-44.025z" class="U"/><g class="V"><use xlink:href="#R"/><path d="M153.804 1274.115h-50.28v-11.411h50.28"/></g><use xlink:href="#Q" x="580.453" class="T"/><path d="M687.105 1173.396h44.023v27.675h-44.023z" class="U"/><g class="V"><use xlink:href="#R" x="580.453"/><path d="M734.257 1274.115h-50.278v-11.411h50.278"/></g><use xlink:href="#Q" x="1120.875" class="T"/><path d="M1227.527 1173.396h44.022v27.675h-44.022z" class="U"/><g class="V"><use xlink:href="#R" x="1120.875"/><path d="M1274.68 1274.115h-50.281v-11.411h50.281"/></g><use xlink:href="#Q" x="1651.289" class="T"/><path d="M1757.941 1173.396h44.022v27.675h-44.022z" class="U"/><g class="V"><use xlink:href="#R" x="1651.289"/><path d="M1805.094 1274.115h-50.281v-11.411h50.281"/></g><use xlink:href="#S" class="D"/><g class="C"><use xlink:href="#T" class="B"/><use xlink:href="#U" class="B"/></g><g class="D"><circle cx="2019.739" cy="1070.834" r="1.87"/><path d="M1995.805 1089.246v-14.349l1.193-1.501h4.458l1.235 1.634v14.216z"/></g><g class="C"><path d="M2002.482 1081.637l-6.531-2.145v-1.917l6.531 2.144zm0 5.573l-6.531-2.144v-1.917l6.531 2.143z" class="B"/></g><g class="D"><circle cx="1999.168" cy="1070.834" r="1.871"/><use xlink:href="#V"/></g><g class="C"><use xlink:href="#W" class="B"/><use xlink:href="#X" class="B"/></g><g class="D"><circle cx="1978.6" cy="1070.834" r="1.87"/><use xlink:href="#Y"/></g><g class="C"><use xlink:href="#W" x="-19.561" class="B"/><use xlink:href="#X" x="-19.561" class="B"/></g><g class="D"><circle cx="1959.314" cy="1070.834" r="1.871"/><use xlink:href="#Z"/></g><g class="C"><use xlink:href="#a" class="B"/><use xlink:href="#b" class="B"/></g><g class="D"><circle cx="1938.745" cy="1070.834" r="1.871"/><path d="M1914.95 1089.246v-14.349l1.193-1.501h4.461l1.234 1.634v14.216z"/></g><g class="C"><use xlink:href="#T" x="-101.286" class="B"/><use xlink:href="#U" x="-101.286" class="B"/></g><g class="D"><circle cx="1918.175" cy="1070.834" r="1.871"/><path d="M1895.391 1089.246v-14.349l1.191-1.501h4.459l1.234 1.634v14.216z"/></g><g class="C"><use xlink:href="#W" x="-79.985" class="B"/><use xlink:href="#X" x="-79.985" class="B"/></g><g class="D"><circle cx="1898.893" cy="1070.834" r="1.871"/><use xlink:href="#c"/></g><g class="C"><use xlink:href="#d" class="B"/><use xlink:href="#e" class="B"/></g><g class="D"><circle cx="1878.322" cy="1070.834" r="1.871"/><use xlink:href="#Z" x="-80.855"/></g><g class="C"><use xlink:href="#T" x="-161.709" class="B"/><use xlink:href="#U" x="-161.709" class="B"/></g><g class="D"><circle cx="1857.752" cy="1070.834" r="1.871"/><use xlink:href="#f"/></g><g class="C"><use xlink:href="#T" x="-181.27" class="B"/><use xlink:href="#U" x="-181.27" class="B"/></g><g class="D"><circle cx="1838.468" cy="1070.834" r="1.87"/><path d="M1814.535 1089.246v-14.349l1.194-1.501h4.459l1.234 1.634v14.216z"/></g><g class="C"><use xlink:href="#g" class="B"/><use xlink:href="#h" class="B"/></g><g class="D"><circle cx="1817.898" cy="1070.834" r="1.871"/><use xlink:href="#i"/></g><g class="C"><use xlink:href="#d" x="-80.856" class="B"/><use xlink:href="#e" x="-80.856" class="B"/></g><g class="D"><circle cx="1797.329" cy="1070.834" r="1.871"/><use xlink:href="#c" x="-102.984"/></g><g class="C"><use xlink:href="#W" x="-203.401" class="B"/><use xlink:href="#X" x="-203.401" class="B"/></g><g class="D"><circle cx="1775.473" cy="1070.834" r="1.871"/><use xlink:href="#Z" x="-183.84"/></g><g class="C"><use xlink:href="#d" x="-123.416" class="B"/><use xlink:href="#e" x="-123.416" class="B"/></g><g class="D"><circle cx="1754.902" cy="1070.834" r="1.871"/><use xlink:href="#j"/></g><g class="C"><use xlink:href="#d" x="-143.848" class="B"/><use xlink:href="#e" x="-143.848" class="B"/></g><g class="D"><circle cx="1734.333" cy="1070.834" r="1.87"/><use xlink:href="#V" x="-263.822"/></g><g class="C"><use xlink:href="#T" x="-304.686" class="B"/><use xlink:href="#U" x="-304.686" class="B"/></g><g class="D"><circle cx="1715.05" cy="1070.834" r="1.871"/><path d="M1691.119 1089.246v-14.349l1.194-1.501h4.457l1.236 1.634v14.216z"/></g><g class="C"><use xlink:href="#g" x="-123.416" class="B"/><use xlink:href="#h" x="-123.416" class="B"/></g><g class="D"><circle cx="1694.48" cy="1070.834" r="1.871"/><use xlink:href="#i" x="-123.416"/></g><g class="C"><use xlink:href="#T" x="-345.549" class="B"/><use xlink:href="#U" x="-345.549" class="B"/></g><g class="D"><circle cx="1673.91" cy="1070.834" r="1.871"/><path d="M1651.127 1089.246v-14.349l1.191-1.501h4.459l1.239 1.634v14.216z"/></g><g class="C"><use xlink:href="#T" x="-365.109" class="B"/><use xlink:href="#U" x="-365.109" class="B"/></g><g class="D"><circle cx="1654.626" cy="1070.834" r="1.871"/><use xlink:href="#Y" x="-325.117"/></g><g class="C"><use xlink:href="#W" x="-344.678" class="B"/><use xlink:href="#X" x="-344.678" class="B"/></g><g class="D"><circle cx="1634.057" cy="1070.834" r="1.871"/><path d="M1610.266 1089.246v-14.349l1.19-1.501h4.46l1.234 1.634v14.216z"/></g><g class="C"><use xlink:href="#W" x="-365.11" class="B"/><use xlink:href="#X" x="-365.11" class="B"/></g><g class="D"><circle cx="1614.13" cy="1070.834" r="1.87"/><use xlink:href="#k"/></g><g class="C"><use xlink:href="#T" x="-425.532" class="B"/><use xlink:href="#U" x="-425.532" class="B"/></g><g class="D"><circle cx="1594.203" cy="1070.834" r="1.871"/><use xlink:href="#k" x="-20.432"/></g><g class="C"><use xlink:href="#T" x="-445.965" class="B"/><use xlink:href="#U" x="-445.965" class="B"/></g><g class="D"><circle cx="1573.633" cy="1070.834" r="1.871"/><use xlink:href="#Z" x="-385.541"/></g><g class="C"><use xlink:href="#d" x="-325.118" class="B"/><use xlink:href="#e" x="-325.118" class="B"/></g><g class="D"><circle cx="1553.706" cy="1070.834" r="1.871"/><use xlink:href="#l"/></g><g class="C"><use xlink:href="#d" x="-349.175" class="B"/><use xlink:href="#e" x="-349.175" class="B"/></g><g class="D"><circle cx="1529.28" cy="1070.834" r="1.871"/><path d="M1505.354 1089.246v-14.349l1.19-1.501h4.459l1.237 1.634v14.216z"/></g><g class="C"><use xlink:href="#T" x="-510.885" class="B"/><use xlink:href="#U" x="-510.885" class="B"/></g><g class="D"><circle cx="1508.711" cy="1070.834" r="1.871"/><use xlink:href="#m"/></g><g class="C"><use xlink:href="#d" x="-390.038" class="B"/><use xlink:href="#e" x="-390.038" class="B"/></g><g class="D"><circle cx="1488.141" cy="1070.834" r="1.871"/><use xlink:href="#l" x="-60.424"/></g><g class="C"><use xlink:href="#W" x="-510.014" class="B"/><use xlink:href="#X" x="-510.014" class="B"/></g><g class="D"><circle cx="1468.857" cy="1070.834" r="1.871"/><use xlink:href="#j" x="-286.182"/></g><g class="C"><use xlink:href="#W" x="-530.445" class="B"/><use xlink:href="#X" x="-530.445" class="B"/></g><g class="D"><circle cx="1448.287" cy="1070.834" r="1.871"/><use xlink:href="#f" x="-410.469"/></g><g class="C"><use xlink:href="#T" x="-591.739" class="B"/><use xlink:href="#U" x="-591.739" class="B"/></g><g class="D"><circle cx="1427.717" cy="1070.834" r="1.871"/><use xlink:href="#n"/></g><g class="C"><use xlink:href="#W" x="-570.437" class="B"/><use xlink:href="#X" x="-570.437" class="B"/></g><g class="D"><circle cx="1408.434" cy="1070.834" r="1.871"/><use xlink:href="#o"/></g><g class="C"><use xlink:href="#T" x="-631.73" class="B"/><use xlink:href="#U" x="-631.73" class="B"/></g><g class="D"><circle cx="1387.863" cy="1070.834" r="1.871"/><path d="M1364.074 1089.246v-14.349l1.192-1.501h4.461l1.235 1.634v14.216z"/></g><g class="C"><use xlink:href="#T" x="-652.162" class="B"/><use xlink:href="#U" x="-652.162" class="B"/></g><g class="D"><circle cx="1367.938" cy="1070.834" r="1.871"/><use xlink:href="#l" x="-181.271"/></g><g class="C"><use xlink:href="#T" x="-671.723" class="B"/><use xlink:href="#U" x="-671.723" class="B"/></g><g class="D"><circle cx="1348.01" cy="1070.834" r="1.871"/><use xlink:href="#c" x="-550.876"/></g><g class="C"><use xlink:href="#W" x="-651.291" class="B"/><use xlink:href="#X" x="-651.291" class="B"/></g><g class="D"><circle cx="1327.441" cy="1070.834" r="1.871"/><use xlink:href="#f" x="-531.316"/></g><g class="C"><use xlink:href="#W" x="-671.723" class="B"/><use xlink:href="#X" x="-671.723" class="B"/></g><g class="D"><circle cx="1307.514" cy="1070.834" r="1.87"/><use xlink:href="#f" x="-553.445"/></g><g class="C"><use xlink:href="#W" x="-693.853" class="B"/><use xlink:href="#X" x="-693.853" class="B"/></g><g class="D"><circle cx="1285.016" cy="1070.834" r="1.871"/><use xlink:href="#o" x="-123.416"/></g><g class="C"><use xlink:href="#d" x="-613.869" class="B"/><use xlink:href="#e" x="-613.869" class="B"/></g><g class="D"><circle cx="1264.446" cy="1070.834" r="1.871"/><path d="M1240.658 1089.246v-14.349l1.192-1.501h4.461l1.234 1.634v14.216z"/></g><g class="C"><use xlink:href="#T" x="-775.578" class="B"/><use xlink:href="#U" x="-775.578" class="B"/></g><g class="D"><circle cx="1243.876" cy="1070.834" r="1.871"/><path d="M1221.099 1089.246v-14.349l1.19-1.501h4.459l1.238 1.634v14.216z"/></g><g class="C"><use xlink:href="#T" x="-795.139" class="B"/><use xlink:href="#U" x="-795.139" class="B"/></g><g class="D"><circle cx="1224.593" cy="1070.834" r="1.871"/><path d="M1200.667 1089.246v-14.349l1.191-1.501h4.458l1.238 1.634v14.216z"/></g><g class="C"><use xlink:href="#W" x="-774.707" class="B"/><use xlink:href="#X" x="-774.707" class="B"/></g><g class="D"><circle cx="1204.023" cy="1070.834" r="1.871"/><use xlink:href="#p"/></g><g class="C"><use xlink:href="#W" x="-795.139" class="B"/><use xlink:href="#X" x="-795.139" class="B"/></g><g class="D"><circle cx="1184.097" cy="1070.834" r="1.87"/><path d="M1160.674 1089.246v-14.349l1.192-1.501h4.46l1.237 1.634v14.216z"/></g><g class="C"><use xlink:href="#d" x="-714.285" class="B"/><use xlink:href="#e" x="-714.285" class="B"/></g><g class="D"><circle cx="1164.17" cy="1070.834" r="1.871"/><use xlink:href="#l" x="-385.541"/></g><g class="C"><use xlink:href="#W" x="-835.131" class="B"/><use xlink:href="#X" x="-835.131" class="B"/></g><g class="D"><circle cx="1143.601" cy="1070.834" r="1.871"/><path d="M1119.813 1089.246v-14.349l1.19-1.501h4.46l1.235 1.634v14.216z"/></g><g class="C"><use xlink:href="#W" x="-855.563" class="B"/><use xlink:href="#X" x="-855.563" class="B"/></g><g class="D"><circle cx="1123.031" cy="1070.834" r="1.871"/><use xlink:href="#q"/></g><g class="C"><use xlink:href="#d" x="-774.708" class="B"/><use xlink:href="#e" x="-774.708" class="B"/></g><g class="D"><circle cx="1103.748" cy="1070.834" r="1.871"/><use xlink:href="#o" x="-304.686"/></g><g class="C"><use xlink:href="#W" x="-895.555" class="B"/><use xlink:href="#X" x="-895.555" class="B"/></g><g class="D"><circle cx="1083.178" cy="1070.834" r="1.871"/><use xlink:href="#r"/></g><g class="C"><use xlink:href="#T" x="-956.848" class="B"/><use xlink:href="#U" x="-956.848" class="B"/></g><g class="D"><circle cx="1062.608" cy="1070.834" r="1.871"/><use xlink:href="#m" x="-445.736"/></g><g class="C"><use xlink:href="#T" x="-977.052" class="B"/><use xlink:href="#U" x="-977.052" class="B"/></g><g class="D"><circle cx="1042.681" cy="1070.834" r="1.871"/><path d="M1018.754 1089.246v-14.349l1.19-1.501h4.46l1.238 1.634v14.216z"/></g><g class="C"><use xlink:href="#d" x="-856.206" class="B"/><use xlink:href="#e" x="-856.206" class="B"/></g><g class="D"><circle cx="1022.111" cy="1070.834" r="1.871"/><use xlink:href="#j" x="-732.789"/></g><g class="C"><use xlink:href="#W" x="-977.052" class="B"/><use xlink:href="#X" x="-977.052" class="B"/></g><g class="D"><circle cx="1002.186" cy="1070.834" r="1.87"/><use xlink:href="#f" x="-858.774"/></g><g class="C"><use xlink:href="#T" x="-1040.044" class="B"/><use xlink:href="#U" x="-1040.044" class="B"/></g><g class="D"><circle cx="979.688" cy="1070.834" r="1.871"/><use xlink:href="#s"/></g><g class="C"><use xlink:href="#W" x="-1019.614" class="B"/><use xlink:href="#X" x="-1019.614" class="B"/></g><g class="D"><circle cx="959.118" cy="1070.834" r="1.871"/><use xlink:href="#j" x="-795.782"/></g><g class="C"><use xlink:href="#T" x="-1080.907" class="B"/><use xlink:href="#U" x="-1080.907" class="B"/></g><g class="D"><circle cx="938.548" cy="1070.834" r="1.87"/><use xlink:href="#m" x="-569.152"/></g><g class="C"><use xlink:href="#T" x="-1100.468" class="B"/><use xlink:href="#U" x="-1100.468" class="B"/></g><g class="D"><circle cx="919.264" cy="1070.834" r="1.871"/><use xlink:href="#Z" x="-1040.045"/></g><g class="C"><use xlink:href="#T" x="-1120.9" class="B"/><use xlink:href="#U" x="-1120.9" class="B"/></g><g class="D"><circle cx="898.694" cy="1070.834" r="1.871"/><use xlink:href="#i" x="-919.198"/></g><g class="C"><use xlink:href="#T" x="-1141.331" class="B"/><use xlink:href="#U" x="-1141.331" class="B"/></g><g class="D"><circle cx="878.768" cy="1070.834" r="1.871"/><use xlink:href="#p" x="-324.89"/></g><g class="C"><use xlink:href="#T" x="-1160.891" class="B"/><use xlink:href="#U" x="-1160.891" class="B"/></g><g class="D"><circle cx="858.842" cy="1070.834" r="1.871"/><use xlink:href="#c" x="-1040.045"/></g><g class="C"><use xlink:href="#g" x="-979.621" class="B"/><use xlink:href="#h" x="-979.621" class="B"/></g><g class="D"><circle cx="838.271" cy="1070.834" r="1.871"/><use xlink:href="#p" x="-365.753"/></g><g class="C"><use xlink:href="#d" x="-1060.477" class="B"/><use xlink:href="#e" x="-1060.477" class="B"/></g><g class="D"><circle cx="817.702" cy="1070.834" r="1.871"/><path d="M794.921 1089.246v-14.349l1.193-1.501h4.459l1.238 1.634v14.216z"/></g><g class="C"><use xlink:href="#d" x="-1080.037" class="B"/><use xlink:href="#e" x="-1080.037" class="B"/></g><g class="D"><circle cx="798.418" cy="1070.834" r="1.87"/><path d="M774.491 1089.246v-14.349l1.191-1.501h4.461l1.234 1.634v14.216z"/></g><g class="C"><use xlink:href="#W" x="-1200.884" class="B"/><use xlink:href="#X" x="-1200.884" class="B"/></g><g class="D"><circle cx="777.849" cy="1070.834" r="1.871"/><use xlink:href="#o" x="-630.447"/></g><g class="C"><use xlink:href="#T" x="-1262.177" class="B"/><use xlink:href="#U" x="-1262.177" class="B"/></g><g class="D"><circle cx="757.279" cy="1070.834" r="1.871"/><use xlink:href="#p" x="-448.037"/></g><g class="C"><use xlink:href="#T" x="-1284.039" class="B"/><use xlink:href="#U" x="-1284.039" class="B"/></g><g class="D"><circle cx="735.701" cy="1070.834" r="1.871"/><path d="M711.768 1089.246v-14.349l1.191-1.501h4.458l1.237 1.634v14.216z"/></g><g class="C"><use xlink:href="#g" x="-1102.769" class="B"/><use xlink:href="#h" x="-1102.769" class="B"/></g><g class="D"><circle cx="715.13" cy="1070.834" r="1.871"/><use xlink:href="#p" x="-488.9"/></g><g class="C"><use xlink:href="#d" x="-1183.624" class="B"/><use xlink:href="#e" x="-1183.624" class="B"/></g><g class="D"><circle cx="694.561" cy="1070.834" r="1.871"/><use xlink:href="#V" x="-1303.598"/></g><g class="C"><use xlink:href="#T" x="-1344.462" class="B"/><use xlink:href="#U" x="-1344.462" class="B"/></g><g class="D"><circle cx="675.276" cy="1070.834" r="1.871"/><path d="M651.343 1089.246v-14.349l1.193-1.501h4.459l1.235 1.634v14.216z"/></g><g class="C"><use xlink:href="#W" x="-1324.03" class="B"/><use xlink:href="#X" x="-1324.03" class="B"/></g><g class="D"><circle cx="654.706" cy="1070.834" r="1.871"/><use xlink:href="#p" x="-549.323"/></g><g class="C"><use xlink:href="#T" x="-1385.325" class="B"/><use xlink:href="#U" x="-1385.325" class="B"/></g><g class="D"><circle cx="634.137" cy="1070.834" r="1.871"/><use xlink:href="#t"/></g><g class="C"><use xlink:href="#T" x="-1404.885" class="B"/><use xlink:href="#U" x="-1404.885" class="B"/></g><g class="D"><circle cx="614.854" cy="1070.834" r="1.871"/><use xlink:href="#Z" x="-1344.462"/></g><g class="C"><use xlink:href="#a" x="-1344.463" class="B"/><use xlink:href="#b" x="-1344.463" class="B"/></g><g class="D"><circle cx="594.283" cy="1070.834" r="1.871"/><use xlink:href="#o" x="-814.017"/></g><g class="C"><use xlink:href="#T" x="-1445.748" class="B"/><use xlink:href="#U" x="-1445.748" class="B"/></g><g class="D"><circle cx="573.713" cy="1070.834" r="1.871"/><path d="M550.927 1089.246v-14.349l1.193-1.501h4.46l1.236 1.634v14.216z"/></g><g class="C"><use xlink:href="#W" x="-1424.446" class="B"/><use xlink:href="#X" x="-1424.446" class="B"/></g><g class="D"><circle cx="554.429" cy="1070.834" r="1.871"/><use xlink:href="#j" x="-1200.614"/></g><g class="C"><use xlink:href="#W" x="-1444.877" class="B"/><use xlink:href="#X" x="-1444.877" class="B"/></g><g class="D"><circle cx="533.86" cy="1070.834" r="1.87"/><path d="M510.064 1089.246v-14.349l1.194-1.501h4.459l1.235 1.634v14.216z"/></g><g class="C"><use xlink:href="#T" x="-1506.172" class="B"/><use xlink:href="#U" x="-1506.172" class="B"/></g><g class="D"><circle cx="513.29" cy="1070.834" r="1.87"/><use xlink:href="#u"/></g><g class="C"><use xlink:href="#T" x="-1528.301" class="B"/><use xlink:href="#U" x="-1528.301" class="B"/></g><g class="D"><circle cx="491.436" cy="1070.834" r="1.871"/><use xlink:href="#Z" x="-1467.878"/></g><g class="C"><use xlink:href="#d" x="-1407.455" class="B"/><use xlink:href="#e" x="-1407.455" class="B"/></g><g class="D"><circle cx="470.864" cy="1070.834" r="1.871"/><use xlink:href="#s" x="-508.688"/></g><g class="C"><use xlink:href="#T" x="-1569.164" class="B"/><use xlink:href="#U" x="-1569.164" class="B"/></g><g class="D"><circle cx="450.295" cy="1070.834" r="1.87"/><use xlink:href="#p" x="-752.723"/></g><g class="C"><use xlink:href="#T" x="-1588.724" class="B"/><use xlink:href="#U" x="-1588.724" class="B"/></g><g class="D"><circle cx="431.011" cy="1070.834" r="1.871"/><use xlink:href="#t" x="-204.271"/></g><g class="C"><use xlink:href="#W" x="-1568.294" class="B"/><use xlink:href="#X" x="-1568.294" class="B"/></g><g class="D"><circle cx="410.442" cy="1070.834" r="1.871"/><use xlink:href="#j" x="-1344.462"/></g><g class="C"><use xlink:href="#d" x="-1488.31" class="B"/><use xlink:href="#e" x="-1488.31" class="B"/></g><g class="D"><circle cx="389.872" cy="1070.834" r="1.871"/><use xlink:href="#q" x="-733.162"/></g><g class="C"><use xlink:href="#d" x="-1507.87" class="B"/><use xlink:href="#e" x="-1507.87" class="B"/></g><g class="D"><circle cx="370.588" cy="1070.834" r="1.871"/><use xlink:href="#o" x="-1037.848"/></g><g class="C"><use xlink:href="#W" x="-1628.717" class="B"/><use xlink:href="#X" x="-1628.717" class="B"/></g><g class="D"><circle cx="350.018" cy="1070.834" r="1.871"/><use xlink:href="#o" x="-1058.28"/></g><g class="C"><use xlink:href="#W" x="-1649.148" class="B"/><use xlink:href="#X" x="-1649.148" class="B"/></g><g class="D"><circle cx="330.091" cy="1070.834" r="1.871"/><use xlink:href="#f" x="-1528.301"/></g><g class="C"><use xlink:href="#a" x="-1628.717" class="B"/><use xlink:href="#b" x="-1628.717" class="B"/></g><g class="D"><circle cx="310.164" cy="1070.834" r="1.871"/><path d="M286.233 1089.246v-14.349l1.193-1.501h4.458l1.238 1.634v14.216z"/></g><g class="C"><use xlink:href="#T" x="-1730.003" class="B"/><use xlink:href="#U" x="-1730.003" class="B"/></g><g class="D"><circle cx="289.594" cy="1070.834" r="1.871"/><use xlink:href="#p" x="-914.433"/></g><g class="C"><use xlink:href="#d" x="-1609.157" class="B"/><use xlink:href="#e" x="-1609.157" class="B"/></g><g class="D"><circle cx="269.668" cy="1070.834" r="1.871"/><use xlink:href="#c" x="-1633.213"/></g><g class="C"><use xlink:href="#d" x="-1633.214" class="B"/><use xlink:href="#e" x="-1633.214" class="B"/></g><g class="D"><circle cx="245.242" cy="1070.834" r="1.871"/><use xlink:href="#u" x="-266.622"/></g><g class="C"><use xlink:href="#d" x="-1653.646" class="B"/><use xlink:href="#e" x="-1653.646" class="B"/></g><g class="D"><circle cx="224.672" cy="1070.834" r="1.871"/><use xlink:href="#o" x="-1183.623"/></g><g class="C"><use xlink:href="#d" x="-1674.076" class="B"/><use xlink:href="#e" x="-1674.076" class="B"/></g><g class="D"><circle cx="204.103" cy="1070.834" r="1.871"/><use xlink:href="#S" x="-1834.915"/></g><g class="C"><use xlink:href="#T" x="-1834.915" class="B"/><use xlink:href="#U" x="-1834.915" class="B"/></g><g class="D"><circle cx="184.818" cy="1070.834" r="1.871"/><use xlink:href="#Z" x="-1774.492"/></g><g class="C"><use xlink:href="#W" x="-1814.483" class="B"/><use xlink:href="#X" x="-1814.483" class="B"/></g><g class="D"><circle cx="164.249" cy="1070.834" r="1.871"/><use xlink:href="#S" x="-1875.778"/></g><g class="C"><use xlink:href="#T" x="-1875.778" class="B"/><use xlink:href="#U" x="-1875.778" class="B"/></g><g class="D"><circle cx="143.679" cy="1070.834" r="1.871"/><use xlink:href="#f" x="-1714.068"/></g><g class="C"><use xlink:href="#W" x="-1854.475" class="B"/><use xlink:href="#X" x="-1854.475" class="B"/></g><g class="D"><circle cx="124.395" cy="1070.834" r="1.871"/><use xlink:href="#n" x="-1304.47"/></g><g class="C"><use xlink:href="#W" x="-1874.907" class="B"/><use xlink:href="#X" x="-1874.907" class="B"/></g><g class="D"><circle cx="103.825" cy="1070.834" r="1.871"/><use xlink:href="#V" x="-1895.337"/></g><g class="C"><use xlink:href="#T" x="-1936.201" class="B"/><use xlink:href="#U" x="-1936.201" class="B"/></g><g class="D"><circle cx="83.899" cy="1070.834" r="1.87"/><use xlink:href="#k" x="-1530.229"/></g><g class="C"><use xlink:href="#T" x="-1955.761" class="B"/><use xlink:href="#U" x="-1955.761" class="B"/></g><g class="D"><circle cx="63.972" cy="1070.834" r="1.871"/><use xlink:href="#r" x="-1019.344"/></g><g class="C"><use xlink:href="#d" x="-1834.915" class="B"/><use xlink:href="#e" x="-1834.915" class="B"/></g><g class="D"><circle cx="43.402" cy="1070.834" r="1.871"/><use xlink:href="#Z" x="-1915.77"/></g><g class="C"><use xlink:href="#T" x="-1996.624" class="B"/><use xlink:href="#U" x="-1996.624" class="B"/></g><g class="D"><circle cx="23.475" cy="1070.834" r="1.87"/><use xlink:href="#q" x="-1102.768"/></g><g class="C"><use xlink:href="#T" x="-2018.754" class="B"/><use xlink:href="#U" x="-2018.754" class="B"/></g><g class="D"><circle cx=".978" cy="1070.834" r="1.87"/><use xlink:href="#n" x="-1427.886"/></g><g class="C"><use xlink:href="#W" x="-1998.323" class="B"/><use xlink:href="#X" x="-1998.323" class="B"/></g><g class="D"><circle cx="-19.592" cy="1070.834" r="1.871"/><use xlink:href="#l" x="-1569.165"/></g><g class="C"><use xlink:href="#W" x="-2018.754" class="B"/><use xlink:href="#X" x="-2018.754" class="B"/></g><g class="D"><circle cx="-40.162" cy="1070.834" r="1.871"/><use xlink:href="#c" x="-1937.899"/></g><g class="C"><use xlink:href="#d" x="-1937.9" class="B"/><use xlink:href="#e" x="-1937.9" class="B"/></g><g class="D"><circle cx="-59.445" cy="1070.834" r="1.871"/><path d="M-83.372 1089.246v-14.349l1.192-1.501h4.458l1.237 1.634v14.216z"/></g><g class="C"><use xlink:href="#W" x="-2058.746" class="B"/><use xlink:href="#X" x="-2058.746" class="B"/></g><g class="D"><circle cx="-80.016" cy="1070.834" r="1.871"/><use xlink:href="#n" x="-1508.741"/></g><g class="C"><use xlink:href="#W" x="-2079.178" class="B"/><use xlink:href="#X" x="-2079.178" class="B"/></g><g class="D"><circle cx="-99.942" cy="1070.834" r="1.87"/><use xlink:href="#p" x="-1303.599"/></g><g class="C"><use xlink:href="#T" x="-2139.601" class="B"/><use xlink:href="#U" x="-2139.601" class="B"/></g><g class="D"><circle cx="-119.868" cy="1070.834" r="1.871"/><use xlink:href="#c" x="-2018.754"/></g><g class="C"><use xlink:href="#W" x="-2119.17" class="B"/><use xlink:href="#X" x="-2119.17" class="B"/></g><g class="D"><circle cx="-140.437" cy="1070.834" r="1.871"/><use xlink:href="#o" x="-1548.733"/></g><g class="C"><use xlink:href="#T" x="-2180.464" class="B"/><use xlink:href="#U" x="-2180.464" class="B"/></g><g class="D"><circle cx="-161.007" cy="1070.834" r="1.871"/><use xlink:href="#o" x="-1568.293"/></g><g class="C"><use xlink:href="#T" x="-2200.024" class="B"/><use xlink:href="#U" x="-2200.024" class="B"/></g><g class="D"><circle cx="-180.291" cy="1070.834" r="1.871"/><use xlink:href="#Z" x="-2139.601"/></g><g class="C"><use xlink:href="#W" x="-2179.593" class="B"/><use xlink:href="#X" x="-2179.593" class="B"/></g><g class="D"><circle cx="-200.861" cy="1070.834" r="1.871"/><use xlink:href="#i" x="-2018.754"/></g><g class="C"><use xlink:href="#T" x="-2240.887" class="B"/><use xlink:href="#U" x="-2240.887" class="B"/></g><g class="D"><circle cx="-221.431" cy="1070.834" r="1.871"/><use xlink:href="#Z" x="-2180.236"/></g><g class="C"><use xlink:href="#T" x="-2261.09" class="B"/><use xlink:href="#U" x="-2261.09" class="B"/></g><g class="D"><circle cx="-241.358" cy="1070.834" r="1.87"/><use xlink:href="#q" x="-1365.536"/></g><g class="C"><use xlink:href="#T" x="-2281.522" class="B"/><use xlink:href="#U" x="-2281.522" class="B"/></g><g class="D"><circle cx="-261.927" cy="1070.834" r="1.871"/><use xlink:href="#p" x="-1465.952"/></g><g class="C"><use xlink:href="#W" x="-2261.091" class="B"/><use xlink:href="#X" x="-2261.091" class="B"/></g><g class="D"><circle cx="-281.854" cy="1070.834" r="1.871"/><use xlink:href="#f" x="-2142.813"/></g><g class="C"><use xlink:href="#T" x="-2324.083" class="B"/><use xlink:href="#U" x="-2324.083" class="B"/></g><g class="D"><circle cx="-304.352" cy="1070.834" r="1.871"/><use xlink:href="#j" x="-2059.389"/></g><g class="C"><use xlink:href="#W" x="-2303.652" class="B"/><use xlink:href="#X" x="-2303.652" class="B"/></g><g class="D"><circle cx="-324.921" cy="1070.834" r="1.871"/><use xlink:href="#j" x="-2079.82"/></g><g class="C"><use xlink:href="#T" x="-2364.946" class="B"/><use xlink:href="#U" x="-2364.946" class="B"/></g><g class="D"><circle cx="-345.491" cy="1070.834" r="1.871"/><use xlink:href="#q" x="-1468.521"/></g><g class="C"><use xlink:href="#T" x="-2384.507" class="B"/><use xlink:href="#U" x="-2384.507" class="B"/></g><g class="D"><circle cx="-364.774" cy="1070.834" r="1.871"/><use xlink:href="#j" x="-2119.812"/></g><g class="C"><use xlink:href="#T" x="-2404.938" class="B"/><use xlink:href="#U" x="-2404.938" class="B"/></g><g class="D"><circle cx="-385.344" cy="1070.834" r="1.871"/><use xlink:href="#p" x="-1589.368"/></g><g class="C"><use xlink:href="#W" x="-2384.507" class="B"/><use xlink:href="#X" x="-2384.507" class="B"/></g><g class="D"><circle cx="-405.271" cy="1070.834" r="1.871"/><use xlink:href="#o" x="-1813.199"/></g><g class="C"><use xlink:href="#W" x="-2404.067" class="B"/><use xlink:href="#X" x="-2404.067" class="B"/></g><g class="D"><circle cx="-425.197" cy="1070.834" r="1.871"/><use xlink:href="#o" x="-1833.63"/></g><g class="C"><use xlink:href="#W" x="-2424.499" class="B"/><use xlink:href="#X" x="-2424.499" class="B"/></g><g class="D"><circle cx="-445.767" cy="1070.834" r="1.871"/><use xlink:href="#o" x="-1854.062"/></g><g class="C"><use xlink:href="#d" x="-2344.515" class="B"/><use xlink:href="#e" x="-2344.515" class="B"/></g><g class="D"><circle cx="-466.336" cy="1070.834" r="1.871"/><use xlink:href="#f" x="-2324.083"/></g><g class="C"><use xlink:href="#W" x="-2464.491" class="B"/><use xlink:href="#X" x="-2464.491" class="B"/></g><g class="D"><circle cx="-485.62" cy="1070.834" r="1.871"/><use xlink:href="#j" x="-2240.659"/></g><g class="C"><use xlink:href="#W" x="-2484.922" class="B"/><use xlink:href="#X" x="-2484.922" class="B"/></g><g class="D"><circle cx="-506.19" cy="1070.834" r="1.871"/><use xlink:href="#f" x="-2364.946"/></g><g class="C"><use xlink:href="#T" x="-2546.216" class="B"/><use xlink:href="#U" x="-2546.216" class="B"/></g><circle cx="-526.76" cy="1070.834" r="1.871" class="D"/><path fill="#1a1d1e" stroke="#0d1011" stroke-width="2" d="M-329.101 1090.544h2255.414v82.72H-329.101z" class="Z"/><defs ><path id="C" d="M1043.854 718.533h3.168v3.167h-3.168z"/><path id="D" d="M1050.862 718.533h3.166v3.167h-3.166z"/><path id="E" d="M1050.862 739.555h3.166v3.166h-3.166z"/><path id="F" d="M61.544 742.665h2.674v2.675h-2.674z"/><path id="G" d="M1842.936 733.834h3.246v3.247h-3.246z"/><path id="H" d="M1835.506 733.834h3.247v3.247h-3.247z"/><path id="I" d="M1785.484 720.771h3.248v3.247h-3.248z"/><path id="J" d="M1785.484 727.271h3.248v3.246h-3.248z"/><path id="K" d="M308.667 627.65h8.167v8.5h-8.167z"/><path id="L" d="M415.824 682.055v17.049"/><path id="M" d="M454.395 701.511h40.48v20.24h-40.48z"/><path id="N" d="M454.423 658.629h19.654v20.972h-19.654z"/><path id="O" d="M475.094 658.629h19.653v20.972h-19.653z"/><path id="P" d="M537.183 701.511h40.481v20.24h-40.481z"/><path id="Q" d="M111.656 1173.396h34.017v92.094h-34.017z"/><path id="R" d="M150.677 1184.183h-44.025v-10.787h44.025"/><path id="S" d="M2016.236 1089.246v-14.349l1.193-1.501h4.46l1.235 1.634v14.216z"/><path id="T" d="M2022.916 1081.637l-6.534-2.145v-1.917l6.534 2.144z"/><path id="U" d="M2022.916 1087.21l-6.534-2.144v-1.917l6.534 2.143z"/><path id="V" d="M1975.373 1089.246v-14.349l1.191-1.501h4.461l1.235 1.634v14.216z"/><path id="W" d="M1982.053 1081.637l-6.533-2.145v-1.917l6.533 2.144z"/><path id="X" d="M1982.053 1087.21l-6.533-2.144v-1.917l6.533 2.143z"/><path id="Y" d="M1955.813 1089.246v-14.349l1.191-1.501h4.461l1.236 1.634v14.216z"/><path id="Z" d="M1935.382 1089.246v-14.349l1.192-1.501h4.459l1.237 1.634v14.216z"/><path id="a" d="M1942.063 1081.637l-6.536-2.145v-1.917l6.536 2.144z"/><path id="b" d="M1942.063 1087.21l-6.536-2.144v-1.917l6.536 2.143z"/><path id="c" d="M1874.959 1089.246v-14.349l1.191-1.501h4.459l1.237 1.634v14.216z"/><path id="d" d="M1881.639 1081.637l-6.535-2.145v-1.917l6.535 2.144z"/><path id="e" d="M1881.639 1087.21l-6.535-2.144v-1.917l6.535 2.143z"/><path id="f" d="M1834.966 1089.246v-14.349l1.192-1.501h4.46l1.236 1.634v14.216z"/><path id="g" d="M1821.214 1081.637l-6.532-2.145v-1.917l6.532 2.144z"/><path id="h" d="M1821.214 1087.21l-6.532-2.144v-1.917l6.532 2.143z"/><path id="i" d="M1794.104 1089.246v-14.349l1.192-1.501h4.459l1.235 1.634v14.216z"/><path id="j" d="M1731.111 1089.246v-14.349l1.192-1.501h4.459l1.236 1.634v14.216z"/><path id="k" d="M1590.703 1089.246v-14.349l1.193-1.501h4.459l1.237 1.634v14.216z"/><path id="l" d="M1525.784 1089.246v-14.349l1.193-1.501h4.459l1.236 1.634v14.216z"/><path id="m" d="M1484.922 1089.246v-14.349l1.19-1.501h4.46l1.236 1.634v14.216z"/><path id="n" d="M1404.938 1089.246v-14.349l1.191-1.501h4.46l1.235 1.634v14.216z"/><path id="o" d="M1384.506 1089.246v-14.349l1.191-1.501h4.46l1.236 1.634v14.216z"/><path id="p" d="M1180.235 1089.246v-14.349l1.192-1.501h4.46l1.235 1.634v14.216z"/><path id="q" d="M1100.251 1089.246v-14.349l1.191-1.501h4.46l1.237 1.634v14.216z"/><path id="r" d="M1059.389 1089.246v-14.349l1.191-1.501h4.459l1.236 1.634v14.216z"/><path id="s" d="M955.76 1089.246v-14.349l1.193-1.501h4.458l1.237 1.634v14.216z"/><path id="t" d="M611.352 1089.246v-14.349l1.192-1.501h4.458l1.236 1.634v14.216z"/><path id="u" d="M487.936 1089.246v-14.349l1.191-1.501h4.459l1.238 1.634v14.216z"/></defs></svg>