<?xml version="1.0" encoding="utf-8"?>
<!-- Generator: Adobe Illustrator 16.0.0, SVG Export Plug-In . SVG Version: 6.00 Build 0)  -->
<!DOCTYPE svg PUBLIC "-//W3C//DTD SVG 1.1//EN" "http://www.w3.org/Graphics/SVG/1.1/DTD/svg11.dtd">
<svg version="1.1" id="Layer_1" xmlns="http://www.w3.org/2000/svg" xmlns:xlink="http://www.w3.org/1999/xlink" x="0px" y="0px"
	 width="430px" height="165px" viewBox="0 0 430 165" enable-background="new 0 0 430 165" xml:space="preserve">
<path fill="#FCFDFF" d="M203.943,46.973h16.645c0,0,3.018-0.232,9.658,2.877l54.25,24.248h-52.4L203.943,46.973z"/>
<polygon fill="#E0D8D6" points="199.293,46.819 201.777,46.821 227.406,71.783 232.406,76.783 229.09,76.783 "/>
<polygon fill="#697386" points="200.775,46.834 203.943,46.834 228.793,71.089 233.793,76.09 230.477,76.09 "/>
<path fill="#F2F2F4" d="M31.189,75.248c-4.048-1.975-11.082-6.366-8.884-11.958c1.907-4.854,9.798-4.532,14.032-4.672l-10.824-8.449
	h25.08L79.634,61.52c0,0,28.249,6.073,45.145,8.451h98.205H277.9c0,0,86.859,1.582,111.939,17.422c0,0,16.367,9.24,31.416,23.762
	c0,0-43.561,3.168-75.506,2.111H198.695c0,0-86.061-0.529-95.829-1.848l-52.801-26.93C50.065,84.488,31.332,75.318,31.189,75.248z"
	/>
<path fill="#3278BC" d="M97.917,109.107c0,0,24.948,12.672,36.036,15.246c0,0,26.928,6.336,62.963,5.545H312.75h54.252
	c0,0,31.285,0.791,49.105-5.939c0,0,9.307-2.773,8.91-8.316c0,0,0-3.961-3.365-4.951c0,0-16.436,2.377-35.84,2.574h-197.41
	c0,0-74.646-1.584-80.981-2.574L97.917,109.107z"/>
<path fill="#F37C20" d="M96.543,108.166c0,0,4.269,2.637,6.433,3.307c0,0,41.004,2.537,63.409,2.432h179.678l-5.496-4.016H167.761
	h-36.145C131.617,109.889,100.028,109.541,96.543,108.166z"/>
<polygon fill="#FFFFFF" points="73.76,70.994 64.322,76.832 24.984,91.617 7.296,91.617 37.327,70.994 "/>
<g>
	<polygon fill="#888F99" points="7.732,92.279 5.894,91.621 37.183,71.01 39.933,71.014 	"/>
</g>
<g>
	<path fill="#DAD9D8" d="M24.203,93.205c-0.235,0-0.404-0.02-0.513-0.037H4.967L5.899,91.6l18.069,0.012
		c-0.002,0,0.037,0.012,0.226,0.012c0.507,0,1.891-0.139,4.372-1.346l27.988-10.424c1.943-0.682,7.303-2.723,8.92-4.033l0.103-0.07
		l8.201-4.758l1.343,0.863l-8.702,5.239c-2.216,1.746-9.035,4.146-9.326,4.248L29.188,91.732
		C26.625,92.982,25.02,93.205,24.203,93.205z"/>
</g>
<path fill="#F0F2EF" d="M40.561,63.633H80.69L49.273,20.601c0,0-6.205-9.768-14.256-9.768h-9.504L40.561,63.633z"/>
<path fill="#D9D7D8" d="M40.561,63.633h36.958L46.895,20.601c0,0-6.466-8.975-14.256-8.975h-7.126L40.561,63.633z"/>
<polygon fill="#6C7786" points="43.201,63.5 39.901,63.5 25.521,11.628 28.355,11.617 "/>
<path fill="#B2B2B2" d="M281.961,131.693c0,0-0.141,2.668-7.865,2.668h-33.992l-6.182-10.252l26.549-8.428h18.541
	c0,0,3.088,0.141,3.369,2.248L281.961,131.693z"/>
<polygon fill="#005283" points="283.996,132.541 280.764,134.023 280.764,115.807 283.996,116.396 "/>
<path fill="#D0D0D1" d="M260.377,142.484c0,0-0.139,2.668-7.865,2.668H218.52l-6.18-10.252l26.549-8.428h18.541
	c0,0,3.088,0.141,3.369,2.248L260.377,142.484z"/>
<polygon fill="#005283" points="262.414,143.332 259.182,144.814 259.182,126.6 262.414,127.188 "/>
<path fill="#F2F2F4" d="M239.191,153.475c0,0-0.141,2.668-7.867,2.668h-33.988l-6.182-10.254l26.545-8.426h18.543
	c0,0,3.09,0.141,3.371,2.246L239.191,153.475z"/>
<polygon fill="#005283" points="241.225,154.32 237.996,155.805 237.996,137.588 241.225,138.178 "/>
<polygon fill="#667685" points="153.159,155.508 154.873,156.232 227.209,99.141 222.854,99.141 185.365,129.238 153.686,154.186 
	152.844,154.896 "/>
<path fill="#FCFDFF" d="M155.6,155.574h36.168c0,0,4.951,0.725,12.076-3.764l91.877-51.744c0,0-38.939-8.977-67.982-1.453
	L155.6,155.574z"/>
<path fill="#DBD7D6" d="M153.026,155.242h37.224c0,0,5.545,1.057,11.482-2.639l49.635-28.117l44.354-24.42v3.695l-39.865,22.572
	l-32.607,17.82l-20.459,11.617c0,0-3.697,2.771-10.559,2.639h-36.434C155.797,158.41,153.159,158.146,153.026,155.242z"/>
<rect x="114.822" y="91.127" fill="#647080" width="3.772" height="4.525"/>
<rect x="121.163" y="91.127" fill="#647080" width="3.771" height="4.525"/>
<rect x="103.055" y="91.277" fill="#F2F2F4" stroke="#D0D0D1" stroke-width="0.792" stroke-miterlimit="10" width="7.016" height="12.221"/>
<rect x="311.984" y="91.188" fill="#667383" width="3.836" height="4.527"/>
<rect x="318.326" y="91.188" fill="#667383" width="3.836" height="4.527"/>
<rect x="323.875" y="91.188" fill="#667383" width="3.838" height="4.527"/>
<rect x="348.709" y="91.461" fill="#F2F2F4" stroke="#D0D0D1" stroke-width="0.792" stroke-miterlimit="10" width="8.629" height="11.916"/>
<path fill="#3478BC" d="M366.799,90.717h9.273c0,0,4.238,7.863,5.404,8.674H372C372,99.391,368.117,97.963,366.799,90.717z"/>
<polygon fill="#3478BC" points="406.949,99.057 399.965,94.107 394.896,90.516 387.738,90.502 394.631,99.068 "/>
<polygon fill="#3478BC" points="376.742,90.621 386.371,90.621 393.297,99.244 382.4,99.244 "/>
</svg>
