<?xml version="1.0" encoding="utf-8"?>
<!-- Generator: Adobe Illustrator 16.0.0, SVG Export Plug-In . SVG Version: 6.00 Build 0)  -->
<!DOCTYPE svg PUBLIC "-//W3C//DTD SVG 1.1//EN" "http://www.w3.org/Graphics/SVG/1.1/DTD/svg11.dtd">
<svg version="1.1" xmlns="http://www.w3.org/2000/svg" xmlns:xlink="http://www.w3.org/1999/xlink" x="0px" y="0px"
	 width="349.974px" height="178.59px" viewBox="0 0 349.974 178.59" enable-background="new 0 0 349.974 178.59"
	 xml:space="preserve">
<g id="Layer_1">
	<g id="Road">
		<g id="Truck_2">
			<circle fill="#E92533" stroke="#B81623" stroke-width="1.1614" stroke-miterlimit="10" cx="337.871" cy="112.343" r="3.847"/>
			
				<ellipse fill="#E92533" stroke="#B81623" stroke-width="1.5075" stroke-miterlimit="10" cx="337.871" cy="128.069" rx="3.847" ry="6.481"/>
			<g id="CNTR_1_">
				<rect x="100.998" y="8.802" fill="#C93C20" width="232.633" height="110.416"/>
				
					<rect x="109.857" y="17.661" fill="none" stroke="#F78137" stroke-width="3.7929" stroke-miterlimit="10" width="214.914" height="93.963"/>
				
					<line fill="none" stroke="#F78137" stroke-width="3.7929" stroke-miterlimit="10" x1="311.293" y1="18.073" x2="311.293" y2="111.211"/>
				
					<line fill="none" stroke="#F78137" stroke-width="3.7929" stroke-miterlimit="10" x1="298.64" y1="18.073" x2="298.64" y2="111.211"/>
				
					<line fill="none" stroke="#F78137" stroke-width="3.7929" stroke-miterlimit="10" x1="285.987" y1="18.073" x2="285.987" y2="111.211"/>
				
					<line fill="none" stroke="#F78137" stroke-width="3.7929" stroke-miterlimit="10" x1="273.334" y1="18.073" x2="273.334" y2="111.211"/>
				
					<line fill="none" stroke="#F78137" stroke-width="3.7929" stroke-miterlimit="10" x1="260.682" y1="18.073" x2="260.682" y2="111.211"/>
				
					<line fill="none" stroke="#F78137" stroke-width="3.7929" stroke-miterlimit="10" x1="248.029" y1="18.073" x2="248.029" y2="111.211"/>
				
					<line fill="none" stroke="#F78137" stroke-width="3.7929" stroke-miterlimit="10" x1="235.376" y1="18.073" x2="235.376" y2="111.211"/>
				
					<line fill="none" stroke="#F78137" stroke-width="3.7929" stroke-miterlimit="10" x1="222.723" y1="18.073" x2="222.723" y2="111.211"/>
				
					<line fill="none" stroke="#F78137" stroke-width="3.7929" stroke-miterlimit="10" x1="210.07" y1="18.073" x2="210.07" y2="111.211"/>
				
					<line fill="none" stroke="#F78137" stroke-width="3.7929" stroke-miterlimit="10" x1="197.417" y1="18.073" x2="197.417" y2="111.211"/>
				
					<line fill="none" stroke="#F78137" stroke-width="3.7929" stroke-miterlimit="10" x1="184.766" y1="18.073" x2="184.766" y2="111.211"/>
				
					<line fill="none" stroke="#F78137" stroke-width="3.7929" stroke-miterlimit="10" x1="172.111" y1="18.073" x2="172.111" y2="111.211"/>
				
					<line fill="none" stroke="#F78137" stroke-width="3.7929" stroke-miterlimit="10" x1="159.459" y1="18.073" x2="159.459" y2="111.211"/>
				
					<line fill="none" stroke="#F78137" stroke-width="3.7929" stroke-miterlimit="10" x1="146.805" y1="18.073" x2="146.805" y2="111.211"/>
				
					<line fill="none" stroke="#F78137" stroke-width="3.7929" stroke-miterlimit="10" x1="134.152" y1="18.073" x2="134.152" y2="111.211"/>
				
					<line fill="none" stroke="#F78137" stroke-width="3.7929" stroke-miterlimit="10" x1="121.499" y1="18.073" x2="121.499" y2="111.211"/>
			</g>
			<path fill="#107E8F" d="M98.893,120.061v25.707h4.636c0,0,3.372-2.95,4.635-11.168c0,0,3.583-14.962,24.442-15.172
				c0,0,16.438-0.423,24.022,17.277h67.009l7.796-18.332H98.893V120.061z"/>
			<polygon fill="#8CBFC2" points="222.264,136.71 228.253,136.71 236.025,122.191 319.311,122.191 325.872,136.527 330.72,136.527 
				323.532,118.396 230.834,118.396 			"/>
			<path fill="#07818C" d="M227.047,136.706l7.164-15.27h87.66l6.111,15.099h-2.951c0,0-6.533-13.939-22.653-13.202
				c0,0-13.906,0-20.122,13.275h-7.797c0,0-5.901-13.696-21.494-13.485c0,0-15.277-0.956-21.387,13.583H227.047z"/>
			<polygon fill="#1E88A2" points="322.656,118.404 333.673,118.404 333.673,136.516 330.426,136.516 			"/>
			<g id="Layer_217">
				<rect x="156.628" y="136.76" fill="#3C3C3C" width="65.586" height="14.54"/>
			</g>
			<g>
				<path d="M331.754,120.008l-0.021,16.491h3.795v-29.471c0,0-0.515-1.259-1.856-2.028c-1.344-0.77-1.938-0.503-1.938-0.503v13.915
					h-9.066l0.673,1.582L331.754,120.008z"/>
			</g>
			<g id="Layer_218">
				<path fill="#C74023" d="M44.579,148.876v-10.747c0,0,3.316-18.017,24.652-18.174c0,0,19.598-0.632,25.918,18.49v11.378
					l5.058-1.264V67.328c0,0,0.316-12.644-38.086-12.169c0,0-28.762-0.79-38.563,9.167c0,0-7.11,29.235-8.376,42.827
					c0,0-0.789,17.521-0.79,17.541c0.008-0.183-2.146-0.028-2.293-0.004c-1.52,0.229-2.681,0.951-3.432,2.326
					c-0.271,0.493-0.399,1.03-0.407,1.594c-0.018,0.972,0.038,1.967,0.588,2.798c0.246,0.374,0.559,0.703,0.907,0.98
					c0.145,0.116,1.475,0.813,1.475,0.841l-0.037,15.665L44.579,148.876z"/>
				
					<line fill="none" stroke="#400000" stroke-width="1.2643" stroke-miterlimit="10" x1="15.132" y1="111.104" x2="100.051" y2="111.104"/>
				
					<line fill="none" stroke="#400000" stroke-width="2.5286" stroke-miterlimit="10" x1="28.301" y1="111.421" x2="28.301" y2="148.719"/>
				<path fill="#060608" d="M27.025,148.833H11.134c-2.097,0-3.794-1.698-3.794-3.793v-8.014c0-2.095,1.697-3.793,3.794-3.793
					h15.892V148.833z"/>
				<path fill="#230000" d="M84.864,104.973c0,1.36-1.104,2.464-2.464,2.464h-9.517c-1.36,0-2.464-1.104-2.464-2.464l0,0
					c0-1.36,1.104-2.464,2.464-2.464H82.4C83.762,102.509,84.864,103.611,84.864,104.973L84.864,104.973z"/>
				<g>
					<polygon fill="#FE8C81" points="101.215,118.379 99.95,118.379 99.93,66.184 101.193,64.608 					"/>
				</g>
				<path fill="#5DCCE7" d="M31.168,64.616h48.428c0,0,5.098-0.679,5.098,3.908v21.238c0,0,0,3.398-3.906,3.398
					c-7.516,0-15.034,0.054-22.551-0.012c-2.896-0.025-5.793-1.157-8.073,1.047c-3.423,3.31-6.629,6.826-10.167,10.02
					c-1.887,1.703-4.606,1.804-6.979,1.239c-3.971-0.939-6.11-4.501-7.114-8.216L31.168,64.616z"/>
				<path fill="#27262B" d="M15.785,65.338V79.12h4.971V65.297L18.5,65.338c0,0,0.627-5.263,7.183-5.388
					c0,0,6.099-0.375,8.813,5.055h-1.213v7.852h3.802v-7.686h-1.13c-0.043,0-0.198-0.677-0.209-0.717
					c-0.198-0.648-0.469-1.269-0.83-1.843c-1.107-1.766-2.919-3.321-4.862-4.063c-0.807-0.31-1.651-0.487-2.506-0.597
					c-1.836-0.234-3.363-0.306-5.085,0.389c-1.629,0.658-3.028,1.794-4.052,3.213c-0.37,0.517-0.688,1.065-0.94,1.646
					c-0.09,0.204-0.596,2.003-0.683,2.015L15.785,65.338z"/>
			</g>
			
				<line fill="none" stroke="#000000" stroke-width="1.2643" stroke-miterlimit="10" x1="99.932" y1="118.52" x2="325.756" y2="118.52"/>
		</g>
	</g>
</g>
<g id="Wheels">
	<g id="Wheel">
		<circle fill="#424043" cx="131.763" cy="146.125" r="22.758"/>
	</g>
	<g id="Wheel_1">
		<circle fill="#424043" cx="68.499" cy="146.125" r="22.757"/>
	</g>
	<g id="Wheel_2">
		<circle fill="#424043" cx="252.862" cy="146.494" r="22.758"/>
	</g>
	<g id="Wheel_3">
		<circle fill="#424043" cx="303.474" cy="146.494" r="22.757"/>
	</g>
</g>
<g id="Layer_4" display="none">
	
		<circle display="inline" fill="none" stroke="#F4F4F4" stroke-width="1.2643" stroke-miterlimit="10" cx="68.499" cy="146.125" r="11.239"/>
	<circle display="inline" fill="#F4F4F4" cx="64.284" cy="137.801" r="1.858"/>
	<circle display="inline" fill="#F4F4F4" cx="73.071" cy="138.016" r="1.858"/>
	<circle display="inline" fill="#F4F4F4" cx="78.217" cy="144.805" r="1.858"/>
	<circle display="inline" fill="#F4F4F4" cx="76.146" cy="152.667" r="1.858"/>
	<circle display="inline" fill="#F4F4F4" cx="68.712" cy="155.884" r="1.859"/>
	<circle display="inline" fill="#F4F4F4" cx="61.135" cy="152.453" r="1.858"/>
	<circle display="inline" fill="#F4F4F4" cx="59.278" cy="144.447" r="1.858"/>
</g>
<g id="Layer_3" display="none">
	
		<circle display="inline" fill="none" stroke="#F4F4F4" stroke-width="1.2643" stroke-miterlimit="10" cx="131.763" cy="146.125" r="11.239"/>
	<circle display="inline" fill="#F4F4F4" cx="127.548" cy="137.801" r="1.858"/>
	<circle display="inline" fill="#F4F4F4" cx="136.337" cy="138.016" r="1.858"/>
	<circle display="inline" fill="#F4F4F4" cx="141.482" cy="144.805" r="1.858"/>
	<circle display="inline" fill="#F4F4F4" cx="139.41" cy="152.667" r="1.858"/>
	<circle display="inline" fill="#F4F4F4" cx="131.977" cy="155.884" r="1.857"/>
	<circle display="inline" fill="#F4F4F4" cx="124.4" cy="152.453" r="1.858"/>
	<circle display="inline" fill="#F4F4F4" cx="122.542" cy="144.447" r="1.858"/>
</g>
<g id="Layer_5" display="none">
	
		<circle display="inline" fill="none" stroke="#F4F4F4" stroke-width="1.2643" stroke-miterlimit="10" cx="252.863" cy="146.494" r="11.239"/>
	<circle display="inline" fill="#F4F4F4" cx="248.648" cy="138.169" r="1.858"/>
	<circle display="inline" fill="#F4F4F4" cx="257.436" cy="138.385" r="1.859"/>
	<circle display="inline" fill="#F4F4F4" cx="262.582" cy="145.175" r="1.859"/>
	<circle display="inline" fill="#F4F4F4" cx="260.509" cy="153.037" r="1.858"/>
	<circle display="inline" fill="#F4F4F4" cx="253.076" cy="156.253" r="1.859"/>
	<circle display="inline" fill="#F4F4F4" cx="245.501" cy="152.821" r="1.858"/>
	<circle display="inline" fill="#F4F4F4" cx="243.642" cy="144.816" r="1.858"/>
</g>
<g id="Layer_6" display="none">
	
		<circle display="inline" fill="none" stroke="#F4F4F4" stroke-width="1.2643" stroke-miterlimit="10" cx="303.474" cy="146.494" r="11.239"/>
	<circle display="inline" fill="#F4F4F4" cx="299.259" cy="138.169" r="1.859"/>
	<circle display="inline" fill="#F4F4F4" cx="308.046" cy="138.385" r="1.858"/>
	<circle display="inline" fill="#F4F4F4" cx="313.191" cy="145.175" r="1.858"/>
	<circle display="inline" fill="#F4F4F4" cx="311.121" cy="153.037" r="1.858"/>
	<circle display="inline" fill="#F4F4F4" cx="303.687" cy="156.253" r="1.858"/>
	<circle display="inline" fill="#F4F4F4" cx="296.112" cy="152.821" r="1.858"/>
	<circle display="inline" fill="#F4F4F4" cx="294.253" cy="144.816" r="1.858"/>
</g>
</svg>
